<?xml version="1.0" encoding="utf-8"?>
<!-- Generator: Adobe Illustrator 26.0.1, SVG Export Plug-In . SVG Version: 6.00 Build 0)  -->
<svg version="1.1" id="Layer_1" xmlns="http://www.w3.org/2000/svg" xmlns:xlink="http://www.w3.org/1999/xlink" x="0px" y="0px"
	 viewBox="0 0 500 500" style="enable-background:new 0 0 500 500;" xml:space="preserve">
<style type="text/css">
	.st0{fill:#404041;}
	.st1{fill:url(#SVGID_1_);}
	.st2{fill:url(#SVGID_00000178896710382510503070000015444000756849497271_);}
	.st3{fill:url(#SVGID_00000052810912624035075110000003504421720748071066_);}
	.st4{fill:url(#SVGID_00000166633425541746920090000000345983173586697113_);}
	.st5{fill:url(#SVGID_00000018930844316754376950000010383188695711093153_);}
	.st6{fill:url(#SVGID_00000049931313268426625440000005763747899792115841_);}
</style>
<g>
	<path d="M318.54,228.86c-5.88,0-9.99,5.86-7.99,11.38l-19.15,15.04c-2.02-1.34-4.53-1.77-6.93-1.12l-12.23-18.4
		c1.13-1.44,1.81-3.26,1.81-5.24c0-4.69-3.81-8.5-8.5-8.5c-4.69,0-8.5,3.81-8.5,8.5c0,2.64,1.21,5,3.1,6.56l-10.63,27.47
		c-1.47-0.07-2.88,0.23-4.14,0.85l-3.7-3.79c2.93-5.63-1.18-12.41-7.54-12.41c-5.85,0-9.97,5.81-8.01,11.33l-11.18,8.67
		c-1.35-0.91-2.98-1.45-4.74-1.45c-4.69,0-8.5,3.81-8.5,8.5c0,4.69,3.81,8.5,8.5,8.5c5.85,0,9.97-5.81,8.01-11.33l11.18-8.67
		c2.57,1.73,5.8,1.89,8.45,0.59l3.7,3.79c-2.94,5.64,1.19,12.41,7.54,12.41c4.68,0,8.5-3.81,8.5-8.5c0-2.64-1.21-5-3.1-6.56
		l10.63-27.47c0.9,0.04,1.79-0.05,2.66-0.29l12.23,18.4c-1.13,1.44-1.81,3.26-1.81,5.24c0,4.69,3.81,8.5,8.5,8.5
		c5.88,0,9.99-5.86,7.99-11.38l19.15-15.04c1.35,0.89,2.96,1.42,4.69,1.42c4.69,0,8.5-3.81,8.5-8.5
		C327.04,232.67,323.22,228.86,318.54,228.86z M210.21,279.4c-1.74,0-3.16-1.42-3.16-3.16c0-1.75,1.42-3.16,3.16-3.16
		c2.17,0,3.72,2.17,2.96,4.24C212.73,278.54,211.57,279.4,210.21,279.4z M234.14,254.54c1.51,0,2.78,1.07,3.09,2.5
		c0.42,1.98-1.1,3.82-3.09,3.82c-2.15,0-3.73-2.15-2.96-4.24C231.63,255.4,232.78,254.54,234.14,254.54z M249.1,276.2
		c-1.75,0-3.16-1.43-3.16-3.16c0-2.01,1.89-3.55,3.9-3.06c1.19,0.29,2.12,1.25,2.35,2.46C252.58,274.4,251.07,276.2,249.1,276.2z
		 M264.25,233.4c-1.12-0.51-1.86-1.63-1.86-2.88c0-1.74,1.42-3.16,3.16-3.16c1.76,0,3.16,1.44,3.16,3.16
		C268.71,232.78,266.36,234.35,264.25,233.4z M286.7,265.51c-1.76,0-3.16-1.44-3.16-3.16c0-2.3,2.38-3.81,4.45-2.87
		c1.47,0.67,2.24,2.36,1.67,3.94C289.23,264.64,288.07,265.51,286.7,265.51z M318.54,240.52c-1.74,0-3.16-1.42-3.16-3.16
		c0-1.69,1.38-3.16,3.16-3.16c1.74,0,3.16,1.42,3.16,3.16C321.69,239.1,320.27,240.52,318.54,240.52z"/>
	<path class="st0" d="M210.21,284.11c-4.34,0-7.87-3.53-7.87-7.87c0-6.3,7.06-10.03,12.25-6.53l0.38,0.25l11.9-9.22l-0.15-0.43
		c-1.81-5.11,1.99-10.49,7.42-10.49c5.89,0,9.7,6.28,6.98,11.49l-0.21,0.4l4.33,4.45c1.91-0.93,2.9-1.05,4.69-0.96l10.96-28.32
		l-0.35-0.29c-1.82-1.5-2.87-3.72-2.87-6.07c0-4.34,3.53-7.87,7.87-7.87c6.54,0,10.23,7.57,6.19,12.72l-0.28,0.36l12.73,19.16
		c0.63-0.17,1.38-0.4,2.52-0.4c1.55,0,3.05,0.45,4.34,1.31l0.38,0.25l19.86-15.6l-0.15-0.43c-1.85-5.12,1.95-10.54,7.4-10.54
		c4.34,0,7.87,3.53,7.87,7.87c0,6.27-7.01,10.01-12.21,6.56l-0.38-0.25l-19.86,15.6l0.15,0.43c1.85,5.12-1.95,10.54-7.4,10.54
		c-6.55,0-10.23-7.58-6.19-12.72l0.28-0.36l-12.73-19.16c-1.67,0.46-2.19,0.42-3.36,0.37l-10.96,28.32l0.35,0.29
		c1.82,1.5,2.87,3.72,2.87,6.07c0,4.34-3.53,7.87-7.87,7.87c-5.88,0-9.7-6.27-6.98-11.49l0.21-0.4l-4.33-4.45
		c-0.63,0.31-1.91,0.99-3.85,0.99c-1.57,0-3.08-0.46-4.38-1.34l-0.38-0.25l-11.9,9.22l0.15,0.43c0.86,2.43,0.5,5.04-1,7.16
		C215.14,282.9,212.8,284.11,210.21,284.11z M210.21,272.46c-2.09,0-3.79,1.7-3.79,3.79c0,2.09,1.7,3.79,3.79,3.79
		c3.02,0,4.86-3.43,3.1-5.95C212.61,273.07,211.45,272.46,210.21,272.46z M245.31,273.04c0,3.54,4.46,5.14,6.71,2.4
		c1.78-2.16,0.67-5.43-2.03-6.08C247.59,268.78,245.31,270.61,245.31,273.04z M282.92,262.36c0,2.09,1.7,3.79,3.79,3.79
		c1.59,0,3.02-1.01,3.56-2.51c0.68-1.87-0.19-3.9-2-4.73C285.75,257.77,282.92,259.63,282.92,262.36z M234.14,253.91
		c-3.04,0-4.86,3.44-3.11,5.94c1.44,2.07,4.45,2.19,6.05,0.22C239.09,257.6,237.3,253.91,234.14,253.91z M318.54,233.57
		c-2.09,0-3.79,1.7-3.79,3.79c0,2.09,1.7,3.79,3.79,3.79c2.09,0,3.79-1.7,3.79-3.79C322.32,235.27,320.63,233.57,318.54,233.57z
		 M265.55,226.74c-2.09,0-3.79,1.7-3.79,3.79c0,2.12,1.74,3.79,3.79,3.79c2.09,0,3.79-1.7,3.79-3.79
		C269.34,228.43,267.64,226.74,265.55,226.74z"/>
	<g>
		
			<linearGradient id="SVGID_1_" gradientUnits="userSpaceOnUse" x1="2888.2891" y1="167.8266" x2="2686.3359" y2="290.5823" gradientTransform="matrix(1 0 0 1 -2518 0)">
			<stop  offset="0" style="stop-color:#FFFFFF"/>
			<stop  offset="0.0859" style="stop-color:#C5CCE4"/>
			<stop  offset="0.1704" style="stop-color:#94A1CD"/>
			<stop  offset="0.2498" style="stop-color:#6E7FBB"/>
			<stop  offset="0.3227" style="stop-color:#5367AE"/>
			<stop  offset="0.3869" style="stop-color:#4258A6"/>
			<stop  offset="0.4355" style="stop-color:#3C53A3"/>
			<stop  offset="1" style="stop-color:#252064"/>
		</linearGradient>
		<path class="st1" d="M259.65,211.8c13.73,0,23.54,13.48,19.24,26.56c2.37-2.24,5.58-3.19,8.7-2.7c6.21,0.97,10.22,7.31,8.26,13.4
			l8.13-6.39c-1.44-8.06-8.18-14.32-16.5-15c-2.1-13.47-13.78-23.8-27.83-23.8c-10.31,0-19.35,5.57-24.26,13.87
			c2.69,0.52,5.28,1.39,7.75,2.6C246.81,215.18,252.84,211.8,259.65,211.8z"/>
		
			<linearGradient id="SVGID_00000070819504260613192060000007942862850971744941_" gradientUnits="userSpaceOnUse" x1="2910.9832" y1="205.1569" x2="2709.0249" y2="327.9156" gradientTransform="matrix(1 0 0 1 -2518 0)">
			<stop  offset="0" style="stop-color:#FFFFFF"/>
			<stop  offset="0.0859" style="stop-color:#C5CCE4"/>
			<stop  offset="0.1704" style="stop-color:#94A1CD"/>
			<stop  offset="0.2498" style="stop-color:#6E7FBB"/>
			<stop  offset="0.3227" style="stop-color:#5367AE"/>
			<stop  offset="0.3869" style="stop-color:#4258A6"/>
			<stop  offset="0.4355" style="stop-color:#3C53A3"/>
			<stop  offset="1" style="stop-color:#252064"/>
		</linearGradient>
		<path style="fill:url(#SVGID_00000070819504260613192060000007942862850971744941_);" d="M309.98,250.19l-6.47,5.08
			c7.24,4.59,9.09,14.18,4.27,21.08c-2.51,0-33.37,0-34.83,0c-1.85-3.13-7.05-11.92-12.08-20.42l-3.64,9.41
			c5.53,9.35,10.67,18.03,11.2,18.94c1.92,0,40.89,0,42.95,0C321.24,274.79,320.61,258.87,309.98,250.19z"/>
		
			<linearGradient id="SVGID_00000005256595678924389760000013043242544901566597_" gradientUnits="userSpaceOnUse" x1="2900.3213" y1="187.619" x2="2698.365" y2="310.3765" gradientTransform="matrix(1 0 0 1 -2518 0)">
			<stop  offset="0" style="stop-color:#FFFFFF"/>
			<stop  offset="0.0859" style="stop-color:#C5CCE4"/>
			<stop  offset="0.1704" style="stop-color:#94A1CD"/>
			<stop  offset="0.2498" style="stop-color:#6E7FBB"/>
			<stop  offset="0.3227" style="stop-color:#5367AE"/>
			<stop  offset="0.3869" style="stop-color:#4258A6"/>
			<stop  offset="0.4355" style="stop-color:#3C53A3"/>
			<stop  offset="1" style="stop-color:#252064"/>
		</linearGradient>
		<path style="fill:url(#SVGID_00000005256595678924389760000013043242544901566597_);" d="M198.66,272.76
			c-4.54-8.08,1.32-18.18,10.65-18.18c3,0,5.75,1.09,7.88,2.89c-2.12-2.84-3.26-6.4-3-10.22c0.55-7.94,7.18-14.23,15.26-14.23
			c5.67,0,10.79,3.14,13.44,7.99l-0.04,0.02c0.45,0.76,3.91,6.6,8.14,13.77l3.64-9.41c-1.97-3.32-3.56-6.02-4.43-7.48
			c-3.46-6.87-10.16-11.69-17.91-12.64c-13.34-1.64-25.22,8.34-26.03,21.61c-9.31,1.42-16.55,9.24-17.06,18.82
			c-12.8,4.05-19.45,18.05-14.72,30.42c7.02,0,120.78,0,127.02,0l7.33-7.92c-2.19,0-124.35,0-127.93,0
			C180.68,278.63,189.23,271.22,198.66,272.76z"/>
	</g>
	<g>
		<g>
			
				<linearGradient id="SVGID_00000015328513483448587120000011980447854392639934_" gradientUnits="userSpaceOnUse" x1="2638.7727" y1="314.2715" x2="2836.95" y2="200.5423" gradientTransform="matrix(1 0 0 1 -2518 0)">
				<stop  offset="0" style="stop-color:#FFFFFF"/>
				<stop  offset="0.0859" style="stop-color:#C5CCE4"/>
				<stop  offset="0.1704" style="stop-color:#94A1CD"/>
				<stop  offset="0.2498" style="stop-color:#6E7FBB"/>
				<stop  offset="0.3227" style="stop-color:#5367AE"/>
				<stop  offset="0.3869" style="stop-color:#4258A6"/>
				<stop  offset="0.4355" style="stop-color:#3C53A3"/>
				<stop  offset="1" style="stop-color:#252064"/>
			</linearGradient>
			<path style="fill:url(#SVGID_00000015328513483448587120000011980447854392639934_);" d="M296.87,247.46
				c0.95-6.56-4.15-12.56-10.88-12.56c-2.14,0-4.21,0.62-5.98,1.77c2.93-12.69-6.67-25.51-20.36-25.51
				c-6.56,0-12.77,3.12-16.71,8.38c-2.1-0.99-4.29-1.74-6.55-2.24c5.04-7.92,13.87-12.81,23.26-12.81
				c12.83,0,25.01,9.22,27.29,23.76l0.49,0.04c7.85,0.64,14.32,6.42,15.86,14.11L296.87,247.46z"/>
		</g>
		<g>
			
				<linearGradient id="SVGID_00000078003293677924467280000007154659253479944854_" gradientUnits="userSpaceOnUse" x1="2658.6814" y1="353.941" x2="2859.4114" y2="238.7467" gradientTransform="matrix(1 0 0 1 -2518 0)">
				<stop  offset="0" style="stop-color:#FFFFFF"/>
				<stop  offset="0.0859" style="stop-color:#C5CCE4"/>
				<stop  offset="0.1704" style="stop-color:#94A1CD"/>
				<stop  offset="0.2498" style="stop-color:#6E7FBB"/>
				<stop  offset="0.3227" style="stop-color:#5367AE"/>
				<stop  offset="0.3869" style="stop-color:#4258A6"/>
				<stop  offset="0.4355" style="stop-color:#3C53A3"/>
				<stop  offset="1" style="stop-color:#252064"/>
			</linearGradient>
			<path style="fill:url(#SVGID_00000078003293677924467280000007154659253479944854_);" d="M268.8,283.65
				c-0.68-1.16-10.87-18.37-10.87-18.37l3.06-7.91l11.61,19.62h35.51c5.44-7.78,2.96-17.12-3.53-21.75l5.39-4.23
				c9.92,8.49,10.4,23.55,1.16,32.65H268.8z"/>
		</g>
		<g>
			
				<linearGradient id="SVGID_00000053530529363170773260000016955851737471002535_" gradientUnits="userSpaceOnUse" x1="2646.5991" y1="337.3546" x2="2848.2283" y2="221.6444" gradientTransform="matrix(1 0 0 1 -2518 0)">
				<stop  offset="0" style="stop-color:#FFFFFF"/>
				<stop  offset="0.0859" style="stop-color:#C5CCE4"/>
				<stop  offset="0.1704" style="stop-color:#94A1CD"/>
				<stop  offset="0.2498" style="stop-color:#6E7FBB"/>
				<stop  offset="0.3227" style="stop-color:#5367AE"/>
				<stop  offset="0.3869" style="stop-color:#4258A6"/>
				<stop  offset="0.4355" style="stop-color:#3C53A3"/>
				<stop  offset="1" style="stop-color:#252064"/>
			</linearGradient>
			<path style="fill:url(#SVGID_00000053530529363170773260000016955851737471002535_);" d="M174.93,295.5
				c-4.07-11.33,1.4-25.05,14.89-29.32c0.5-9.3,6.83-17.18,17.06-18.74c0.86-14.09,12.85-23.08,25.36-21.54
				c7.49,0.92,14.01,5.52,17.42,12.3l4.29,7.26l-3.06,7.91l-7.26-12.27c-1.94-4.3-7.3-8.7-14.17-8.7
				c-11.67,0-19.53,12.34-14.29,22.98c-1.8-0.92-3.81-1.42-5.85-1.42c-9.38,0-15.47,9.7-11.74,18.04
				c-9.27-0.81-17.52,6.61-17.3,16.23l0.01,0.62h127.11l-6.16,6.66H174.93z"/>
		</g>
	</g>
</g>
</svg>
