<svg width="24" height="20" viewBox="0 0 24 20" fill="none" xmlns="http://www.w3.org/2000/svg">
<path d="M21.932 5.41395C21.0408 5.41395 20.4169 6.69536 20.7288 7.88067L17.8322 11.1483C17.5203 10.8599 17.1415 10.7638 16.785 10.892L14.9356 6.91961C15.1139 6.59926 15.203 6.21483 15.203 5.79838C15.203 4.77325 14.6237 3.97237 13.9329 3.97237C13.2422 3.97237 12.6629 4.80528 12.6629 5.79838C12.6629 6.37501 12.8411 6.88757 13.1308 7.20793L11.5265 13.1665C11.3037 13.1665 11.1032 13.2306 10.9026 13.3587L10.3456 12.5258C10.7912 11.3084 10.1674 9.83482 9.20925 9.83482C8.31799 9.83482 7.71639 11.0842 8.00605 12.3015L6.31265 14.1596C6.11211 13.9674 5.86702 13.8392 5.59964 13.8392C4.88663 13.8392 4.32959 14.6721 4.32959 15.6652C4.32959 16.6583 4.90891 17.4912 5.59964 17.4912C6.4909 17.4912 7.0925 16.2419 6.80284 15.0245L8.49624 13.1344C8.87503 13.5189 9.36522 13.5509 9.76629 13.2626L10.3233 14.0955C9.8777 15.3128 10.5016 16.7865 11.4597 16.7865C12.1727 16.7865 12.7297 15.9536 12.7297 14.9605C12.7297 14.3838 12.5515 13.8713 12.2618 13.5509L13.8884 7.62439C14.0221 7.62439 14.1558 7.62439 14.2894 7.56032L16.1388 11.5327C15.9606 11.853 15.8714 12.2375 15.8714 12.6539C15.8714 13.679 16.4508 14.4799 17.1415 14.4799C18.0327 14.4799 18.6566 13.1985 18.3447 12.0132L21.2413 8.74562C21.4418 8.93783 21.6869 9.06597 21.9543 9.06597C22.6673 9.06597 23.2243 8.23306 23.2243 7.23996C23.2243 6.24687 22.645 5.41395 21.932 5.41395ZM5.59964 16.37C5.33226 16.37 5.13173 16.0497 5.13173 15.6973C5.13173 15.3128 5.35454 15.0245 5.59964 15.0245C5.93386 15.0245 6.15668 15.5051 6.04527 15.9536C5.97842 16.1778 5.82245 16.37 5.59964 16.37ZM9.20925 10.9881C9.43206 10.9881 9.6326 11.2123 9.67716 11.5327C9.74401 11.9491 9.52119 12.3656 9.20925 12.3656C8.87503 12.3656 8.65221 11.8851 8.76362 11.4366C8.83046 11.1803 9.00872 10.9881 9.20925 10.9881ZM11.4597 15.6652C11.1923 15.6652 10.9918 15.3449 10.9918 14.9925C10.9918 14.544 11.2814 14.2236 11.5711 14.3198C11.7493 14.3838 11.883 14.576 11.9276 14.8644C11.9944 15.2808 11.7716 15.6652 11.4597 15.6652ZM13.7547 6.40705C13.5764 6.31094 13.465 6.05466 13.465 5.79838C13.465 5.41395 13.6878 5.12564 13.9329 5.12564C14.2003 5.12564 14.4009 5.44599 14.4009 5.79838C14.4231 6.2789 14.0666 6.59926 13.7547 6.40705ZM17.1415 13.3587C16.8741 13.3587 16.6736 13.0383 16.6736 12.686C16.6736 12.1734 17.0301 11.853 17.342 12.0773C17.5648 12.2375 17.6762 12.5899 17.5871 12.9422C17.5203 13.1665 17.342 13.3587 17.1415 13.3587ZM21.932 7.94474C21.6646 7.94474 21.4641 7.62439 21.4641 7.272C21.4641 6.91961 21.6646 6.59926 21.932 6.59926C22.1994 6.59926 22.3999 6.91961 22.3999 7.272C22.4222 7.62439 22.1994 7.94474 21.932 7.94474Z" fill="#AFB0A7"/>
<path d="M5.59962 17.3951C4.95346 17.3951 4.4187 16.6263 4.4187 15.6973C4.4187 14.3198 5.48822 13.5189 6.26807 14.2877L6.33491 14.3518L8.11744 12.3656L8.09516 12.2375C7.82778 11.1162 8.38482 9.96296 9.20923 9.96296C10.1005 9.96296 10.6798 11.3084 10.2565 12.4617L10.2342 12.5578L10.8804 13.5189C11.17 13.3267 11.326 13.2946 11.5934 13.3267L13.2422 7.17589L13.1976 7.11182C12.9303 6.79147 12.7743 6.31094 12.7743 5.79838C12.7743 4.86936 13.309 4.10051 13.9552 4.10051C14.9356 4.10051 15.4926 5.73431 14.891 6.85554L14.8465 6.91961L16.7627 11.0842C16.8518 11.0522 16.9632 10.9881 17.1415 10.9881C17.3643 10.9881 17.6094 11.0842 17.7876 11.2764L17.8545 11.3405L20.8402 7.94474L20.8179 7.84863C20.5283 6.7274 21.1076 5.57413 21.932 5.57413C22.5782 5.57413 23.1129 6.34298 23.1129 7.272C23.1129 8.61748 22.0657 9.4504 21.2636 8.68155L21.1967 8.61748L18.2333 12.0132L18.2555 12.1093C18.5452 13.2306 17.9659 14.3838 17.1415 14.3838C16.1611 14.3838 15.604 12.75 16.2056 11.6288L16.2502 11.5647L14.334 7.40014C14.0889 7.49625 13.9998 7.49625 13.8215 7.49625L12.1727 13.647L12.2172 13.7111C12.4846 14.0314 12.6406 14.512 12.6406 15.0245C12.6406 15.9536 12.1058 16.7224 11.4597 16.7224C10.5684 16.7224 9.98909 15.3769 10.4124 14.2237L10.4347 14.1275L9.78855 13.1665C9.69943 13.2306 9.49889 13.3907 9.20923 13.3907C8.96414 13.3907 8.74132 13.2946 8.54079 13.1024L8.47394 13.0383L6.69142 15.0245L6.7137 15.1206C6.84739 15.6332 6.78054 16.2098 6.55773 16.6583C6.3572 17.1389 6.00069 17.3951 5.59962 17.3951ZM5.59962 14.8644C5.28768 14.8644 5.0203 15.2167 5.0203 15.6973C5.0203 16.1458 5.2654 16.5302 5.59962 16.5302C6.04525 16.5302 6.33491 15.7934 6.06754 15.2488C5.97841 14.9925 5.80016 14.8644 5.59962 14.8644ZM10.9026 14.9925C10.9026 15.7613 11.5711 16.1137 11.9053 15.5051C12.1727 15.0245 12.0167 14.3198 11.5934 14.1916C11.2369 14.0635 10.9026 14.4479 10.9026 14.9925ZM16.5621 12.686C16.5621 13.1345 16.8072 13.5189 17.1415 13.5189C17.3866 13.5189 17.5871 13.2946 17.6762 12.9743C17.7876 12.5578 17.6539 12.1414 17.3643 11.9491C16.9855 11.6929 16.5621 12.0773 16.5621 12.686ZM9.20923 10.8279C8.74132 10.8279 8.47394 11.5647 8.74132 12.1093C8.96414 12.5578 9.40977 12.5899 9.65487 12.1414C9.96681 11.6288 9.69943 10.8279 9.20923 10.8279ZM21.932 6.43908C21.6201 6.43908 21.3527 6.79147 21.3527 7.272C21.3527 7.72049 21.5978 8.10492 21.932 8.10492C22.2662 8.10492 22.5113 7.75253 22.5113 7.272C22.5113 6.79147 22.2439 6.43908 21.932 6.43908ZM13.9552 4.96546C13.6433 4.96546 13.3759 5.31785 13.3759 5.79838C13.3759 6.24687 13.6433 6.63129 13.9552 6.63129C14.2671 6.63129 14.5345 6.27891 14.5345 5.79838C14.5122 5.31785 14.2671 4.96546 13.9552 4.96546Z" fill="#AFB0A7"/>
<path d="M13.064 1.72991C15.1361 1.72991 16.6067 4.64511 15.9606 7.49625C16.3171 7.01572 16.8073 6.79148 17.2752 6.91962C18.211 7.14386 18.8126 8.48934 18.5229 9.83483L19.7484 8.45731C19.5256 6.69537 18.5229 5.34989 17.2529 5.22175C16.941 2.30654 15.1807 0.0640717 13.064 0.0640717C11.5043 0.0640717 10.1451 1.28141 9.40979 3.07539C9.81086 3.20353 10.2119 3.3637 10.5684 3.65202C11.1255 2.46672 12.039 1.72991 13.064 1.72991Z" fill="#AFB0A7"/>
<path d="M20.6396 10.027L19.6592 11.1162C20.751 12.1093 21.0184 14.1916 20.3054 15.6973C19.9266 15.6973 15.2698 15.6973 15.047 15.6973C14.7573 15.0245 13.9775 13.1024 13.2199 11.2764L12.6628 13.3267C13.4873 15.3449 14.2671 17.235 14.3562 17.4272C14.6459 17.4272 20.5282 17.4272 20.8402 17.4272C22.333 15.3769 22.2439 11.9171 20.6396 10.027Z" fill="#AFB0A7"/>
<path d="M3.86167 14.9284C3.17095 13.1665 4.06221 10.9881 5.46595 10.9881C5.91158 10.9881 6.33493 11.2123 6.64687 11.6288C6.33493 11.0201 6.15667 10.2513 6.20124 9.41835C6.29036 7.68844 7.29303 6.34296 8.49624 6.34296C9.34294 6.34296 10.1228 7.0157 10.5239 8.07286C10.5907 8.23304 11.1032 9.51445 11.7493 11.0521L12.3064 9.00189C12.0167 8.29711 11.7716 7.68844 11.6379 7.36809C11.1255 5.89447 10.1005 4.8373 8.94187 4.64509C6.93653 4.2927 5.13172 6.43907 5.02032 9.32224C3.61658 9.64259 2.52478 11.3405 2.45794 13.3907C0.519442 14.2557 -0.483228 17.299 0.229782 19.99C1.27701 19.99 18.4338 19.99 19.3696 19.99L20.4837 18.2601C20.1495 18.2601 1.74493 18.2601 1.21017 18.2601C1.16561 16.2098 2.45794 14.6081 3.86167 14.9284Z" fill="#AFB0A7"/>
<path d="M18.679 9.45039C18.8126 8.04084 18.0551 6.72739 17.0301 6.72739C16.7182 6.72739 16.4062 6.85553 16.1389 7.11181C16.5845 4.35678 15.1362 1.56971 13.064 1.56971C12.0836 1.56971 11.1478 2.24246 10.5462 3.39572C10.2342 3.17148 9.90002 3.0113 9.5658 2.9152C10.3234 1.18529 11.6603 0.128128 13.064 0.128128C15.0025 0.128128 16.8296 2.11431 17.1861 5.2858H17.2529C18.4339 5.41395 19.4142 6.66332 19.6371 8.32915L18.679 9.45039Z" fill="#AFB0A7"/>
<path d="M14.4455 17.299C14.3341 17.0427 12.7966 13.2946 12.7966 13.2946L13.2645 11.5647L15.0025 15.8574H20.3501C21.1745 14.1596 20.7957 12.1414 19.8153 11.1483L20.6175 10.2192C22.1103 12.0452 22.1772 15.3128 20.7957 17.299H14.4455Z" fill="#AFB0A7"/>
<path d="M0.296619 19.8619C-0.327264 17.3951 0.497153 14.4479 2.54706 13.5189C2.6139 11.5007 3.57201 9.80278 5.10943 9.4504C5.24312 6.40705 7.04793 4.4529 8.94186 4.77325C10.0782 4.96546 11.0586 5.95855 11.5711 7.43218L12.2172 9.0019L11.7493 10.7318L10.6353 8.07288C10.3456 7.14386 9.54346 6.1828 8.49623 6.1828C6.73599 6.1828 5.55506 8.84173 6.33492 11.1483C6.06754 10.9561 5.7556 10.8279 5.44366 10.8279C4.03992 10.8279 3.10409 12.9422 3.68341 14.7362C2.27968 14.576 1.03191 16.1778 1.07647 18.2601V18.3882H20.2386L19.3028 19.8298L0.296619 19.8619Z" fill="#AFB0A7"/>
</svg>
