<svg width="389" height="52" viewBox="0 0 389 52" fill="none" xmlns="http://www.w3.org/2000/svg">
<path d="M112.562 13.1268C112.245 13.1268 111.928 13.0634 111.61 13C109.072 12.3024 106.66 11.9854 104.312 11.9854C103.17 11.9854 101.901 12.0488 100.568 12.239C99.2358 12.4293 97.8397 12.6829 96.3167 13.0634C96.3167 15.0927 96.2533 18.2 96.1264 22.2585C97.0148 22.1951 99.9973 21.9415 105.201 21.3707C108.183 21.0536 110.024 20.9268 110.849 20.9268C111.737 20.9268 112.562 21.2439 113.197 21.8146C113.831 22.3854 114.149 23.1463 114.149 24.0975C114.149 25.9366 113.197 26.9512 111.229 27.2049C109.96 27.2683 108.12 27.4585 105.645 27.6488C103.424 27.9024 100.124 28.2195 95.6822 28.5366C95.5552 30.5024 95.4918 32.0878 95.4918 33.2927C95.4918 36.3366 95.6822 38.0488 95.9995 38.4927C96.1898 38.6829 97.1417 38.8097 98.9185 38.8097C99.8704 38.8097 101.33 38.8097 103.297 38.7463C105.201 38.6829 106.66 38.6829 107.676 38.6829C107.993 38.6829 108.437 38.6195 109.072 38.5561C109.706 38.4927 110.151 38.4293 110.405 38.4293C111.293 38.4293 112.054 38.6829 112.689 39.1902C113.387 39.761 113.768 40.5854 113.768 41.6C113.768 43.3122 112.879 44.3902 111.039 44.7073C109.516 45.0244 106.28 45.1512 101.393 45.1512C96.3167 45.1512 93.0804 44.4536 91.4939 43.1219C89.7805 41.6 88.9556 38.3658 88.9556 33.3561C88.9556 31.2634 89.0825 28.1561 89.3998 24.0341C89.7171 19.8488 89.844 16.7415 89.844 14.7122C89.844 14.1415 89.7805 13.3805 89.5902 12.3024C89.4632 11.2244 89.3363 10.4634 89.3363 9.89267C89.3363 7.54633 90.4151 6.34145 92.5727 6.34145C93.2707 6.34145 93.9053 6.53169 94.4764 6.91218C96.2533 6.46828 97.9667 6.15121 99.6166 5.89755C101.203 5.64389 102.789 5.58047 104.186 5.58047C108.057 5.58047 111.229 6.02438 113.577 6.91218C114.974 7.48291 115.735 8.43413 115.735 9.82926C115.735 10.6536 115.481 11.3512 114.91 11.9854C114.339 12.8097 113.577 13.1268 112.562 13.1268Z" fill="#3A5581"/>
<path d="M145.687 43.6293C144.482 43.5659 143.212 42.1707 142.007 39.3171C141.182 37.478 140.484 35.3854 139.913 32.9756C138.77 33.1658 136.867 33.2927 134.265 33.4829C131.79 33.6732 129.95 33.8634 128.617 34.1171C127.919 35.8293 126.65 38.3659 124.873 41.7902C124.175 42.9317 123.223 43.439 122.017 43.439C121.192 43.439 120.431 43.1219 119.733 42.5512C119.035 41.9805 118.718 41.2195 118.718 40.3317C118.718 39.5707 119.86 36.8439 122.144 32.278C121.954 31.7707 121.827 31.3268 121.89 30.9463C121.954 30.1854 122.715 29.6146 124.111 29.1707C126.333 25.3659 128.744 21.4341 131.473 17.3122C135.344 11.478 137.755 8.49756 138.643 8.49756C140.357 8.49756 141.499 9.51219 142.07 11.6049C142.388 13.2537 142.895 15.7268 143.53 19.0878C144.482 23.5268 145.624 28.6634 147.02 34.3707C147.147 34.8146 147.528 35.8293 148.226 37.4146C148.797 38.7463 149.051 39.761 149.051 40.3951C149.051 41.2829 148.733 42.0439 148.035 42.6146C147.337 43.3756 146.512 43.6293 145.687 43.6293ZM136.994 19.7854C135.788 21.878 134.138 24.6683 131.98 28.2829C132.678 28.1561 133.757 28.0293 135.217 27.9024C136.93 27.7756 138.072 27.7122 138.517 27.6488C138.199 25.6195 137.692 23.0195 136.994 19.7854Z" fill="#3A5581"/>
<path d="M164.788 44.3268C160.854 44.3268 157.744 43.439 155.523 41.7268C153.62 40.2683 152.668 38.6195 152.668 36.6537C152.668 35.7024 152.985 34.878 153.556 34.2439C154.127 33.6098 154.952 33.2927 156.031 33.2927C157.427 33.2927 158.442 33.9902 159.077 35.4488C159.965 37.3512 161.933 38.3024 165.106 38.3024C167.771 38.3024 170.373 37.7317 172.848 36.5268C175.449 35.322 176.718 34.0537 176.718 32.5951C176.718 30.6293 175.894 29.361 174.307 28.7268C173.165 28.2829 170.88 28.0293 167.39 27.9659C164.725 27.9024 162.313 27.3951 160.156 26.4439C157.3 25.1756 155.904 23.3366 155.904 20.9268C155.968 17.8829 157.554 15.1561 160.727 12.6195C163.9 10.0829 167.39 8.81464 171.198 8.81464C172.721 8.81464 174.624 9.13171 176.845 9.82927C179.638 10.7171 181.034 11.6683 181.034 12.8098C181.034 13.6341 180.78 14.3317 180.209 14.9659C179.574 15.6634 178.813 15.9805 177.797 15.9805C177.099 15.9805 175.957 15.8537 174.561 15.5366C173.101 15.2195 172.023 15.0927 171.261 15.0927C169.294 15.0927 167.39 15.6 165.55 16.5512C163.709 17.5024 162.758 18.5805 162.758 19.6585C162.758 20.2293 163.075 20.7366 163.583 21.1171C164.154 21.4976 164.979 21.7512 166.121 21.9415C168.088 22.0683 170.055 22.1317 172.023 22.2585C175.449 22.5122 178.178 23.4634 180.209 25.1756C182.43 27.0146 183.509 29.6146 183.509 32.9122C183.509 36.9073 181.224 39.9512 176.655 41.9805C173.228 43.5659 169.294 44.3268 164.788 44.3268Z" fill="#3A5581"/>
<path d="M212.699 14.2683C211.938 15.9171 210.288 19.4049 207.94 24.7951C205.973 29.2975 204.259 32.8488 202.863 35.4488C200.452 39.8878 199.119 42.2975 198.992 42.5512C198.104 43.8829 197.025 44.5805 195.819 44.5805C194.995 44.5805 194.233 44.3268 193.598 43.7561C192.9 43.1219 192.52 42.361 192.52 41.4732C192.52 40.7122 194.106 37.5414 197.342 31.8975C196.137 30.1854 194.423 27.5854 192.202 24.0975C190.552 21.561 188.078 17.6293 184.841 12.4293C184.524 11.9219 184.397 11.3512 184.397 10.7805C184.397 9.89267 184.714 9.13169 185.412 8.49755C186.047 7.92681 186.808 7.60974 187.697 7.60974C188.712 7.60974 189.664 8.11706 190.489 9.19511L192.266 11.9854C192.393 12.1756 193.725 14.4585 196.264 18.7707C197.85 21.561 199.31 23.7171 200.515 25.3658C201.721 23.0195 203.371 19.4049 205.592 14.5854C206.036 13.5073 206.734 11.9219 207.686 9.76584C208.257 8.37072 209.273 7.67316 210.732 7.67316C211.557 7.67316 212.319 7.92681 212.953 8.49755C213.651 9.13169 214.032 9.82925 214.032 10.7805C214.032 11.2244 213.588 12.4293 212.699 14.2683Z" fill="#3A5581"/>
<path d="M228.247 44.3268C224.312 44.3268 221.203 43.439 218.982 41.7268C217.078 40.2683 216.126 38.6195 216.126 36.6537C216.126 35.7024 216.444 34.878 217.015 34.2439C217.586 33.6098 218.411 33.2927 219.49 33.2927C220.886 33.2927 221.901 33.9902 222.536 35.4488C223.424 37.3512 225.391 38.3024 228.564 38.3024C231.229 38.3024 233.831 37.7317 236.306 36.5268C238.908 35.322 240.177 34.0537 240.177 32.5951C240.177 30.6293 239.352 29.361 237.766 28.7268C236.623 28.2829 234.339 28.0293 230.849 27.9659C228.183 27.9024 225.772 27.3951 223.614 26.4439C220.759 25.1756 219.363 23.3366 219.363 20.9268C219.426 17.8829 221.013 15.1561 224.185 12.6195C227.358 10.0829 230.849 8.81464 234.656 8.81464C236.179 8.81464 238.083 9.13171 240.304 9.82927C243.096 10.7171 244.492 11.6683 244.492 12.8098C244.492 13.6341 244.238 14.3317 243.667 14.9659C243.033 15.6634 242.271 15.9805 241.256 15.9805C240.494 15.9805 239.415 15.8537 238.019 15.5366C236.56 15.2195 235.481 15.0927 234.72 15.0927C232.752 15.0927 230.849 15.6 229.008 16.5512C227.168 17.5024 226.216 18.5805 226.216 19.6585C226.216 20.2293 226.533 20.7366 227.041 21.1171C227.612 21.4976 228.437 21.7512 229.579 21.9415C231.547 22.0683 233.514 22.1317 235.481 22.2585C238.908 22.5122 241.636 23.4634 243.667 25.1756C245.888 27.0146 246.967 29.6146 246.967 32.9122C246.967 36.9073 244.683 39.9512 240.114 41.9805C236.687 43.5659 232.689 44.3268 228.247 44.3268Z" fill="#3A5581"/>
<path d="M273.746 18.2C272.35 18.2 271.335 17.439 270.637 15.9805C270.32 15.2829 270.002 14.839 269.685 14.7122C269.431 14.5854 268.86 14.5219 267.845 14.5219C265.878 14.5219 263.657 16.0439 261.055 19.0878C257.501 23.3366 255.661 27.3317 255.661 31.0097C255.661 32.7219 256.232 34.1171 257.374 35.3853C258.516 36.6536 259.849 37.2244 261.435 37.2244C262.958 37.2244 264.545 36.8439 266.131 36.0195C266.703 35.7024 267.845 34.9414 269.685 33.7366C270.891 32.9122 271.779 32.5317 272.414 32.5317C273.366 32.5317 274.127 32.8488 274.762 33.5463C275.396 34.1805 275.65 34.878 275.65 35.7024C275.65 36.5902 275.269 37.4146 274.444 38.1122C270.193 41.7268 265.878 43.5024 261.435 43.5024C257.945 43.5024 255.026 42.2341 252.615 39.6975C250.33 37.2244 249.188 34.3707 249.188 31.0732C249.188 25.8732 251.472 20.6097 255.978 15.2195C259.849 10.6536 263.783 8.37072 267.781 8.37072C268.479 8.37072 269.05 8.37072 269.622 8.43413C270.193 8.49755 270.637 8.56096 271.081 8.62438C271.779 7.99023 272.604 7.60974 273.556 7.60974C275.142 7.60974 276.094 8.49755 276.475 10.3366C276.729 11.6049 276.856 13.1268 276.856 14.9024C276.856 15.6634 276.665 16.361 276.158 16.9951C275.714 17.7561 274.825 18.2 273.746 18.2Z" fill="#3A5581"/>
<path d="M295.893 44.3268C291.324 44.3268 287.39 42.9951 284.154 40.3951C280.727 37.6049 279.013 33.9268 279.013 29.4878C279.013 24.2244 280.663 19.4049 283.963 15.0927C287.644 10.2097 292.34 7.79999 297.924 7.79999C303.318 7.79999 307.379 9.06828 310.108 11.5415C312.773 14.0146 314.169 17.7561 314.169 22.7024C314.169 27.9658 312.646 32.7219 309.6 37.0341C306.11 41.8536 301.541 44.3268 295.893 44.3268ZM297.924 14.0146C294.497 14.0146 291.515 15.6634 289.04 19.0244C286.755 22.1317 285.55 25.6195 285.55 29.4244C285.55 31.961 286.565 34.1171 288.532 35.7024C290.436 37.2244 292.847 38.0488 295.83 38.0488C299.257 38.0488 302.049 36.4 304.333 33.039C306.427 29.9951 307.443 26.5073 307.443 22.639C307.443 19.4049 306.681 17.1219 305.285 15.8536C303.953 14.6488 301.478 14.0146 297.924 14.0146Z" fill="#3A5581"/>
<path d="M341.837 43.1853C341.012 43.1853 340.251 42.8683 339.553 42.2341C334.857 37.8585 329.717 34.8146 324.069 33.1024C324.259 37.6049 324.323 40.078 324.323 40.5853C324.323 41.4731 324.006 42.2341 323.371 42.8049C322.736 43.439 321.975 43.7561 321.023 43.7561C320.071 43.7561 319.31 43.439 318.675 42.8049C318.04 42.1707 317.723 41.4731 317.723 40.5853C317.723 39.4439 317.723 37.6683 317.787 35.3853C317.85 33.1024 317.85 31.3268 317.85 30.1853L317.914 11.478C317.914 10.4634 318.231 9.57559 318.802 8.7512C319.563 7.67315 320.706 7.22924 322.102 7.35607C325.846 7.60973 327.813 7.79998 327.876 7.79998C330.034 8.05363 331.874 8.56095 333.397 9.38534C339.997 12.6829 343.297 16.8683 343.297 21.7512C343.297 23.7805 342.599 25.5561 341.203 27.1414C339.807 28.7268 337.713 29.9951 334.984 31.0731C339.109 33.3561 342.155 35.7024 344.249 38.1122C344.756 38.7463 345.074 39.4439 345.074 40.2049C345.074 41.0927 344.756 41.7902 344.122 42.4244C343.551 42.8683 342.789 43.1853 341.837 43.1853ZM326.988 14.0146C326.861 14.0146 325.973 13.9512 324.259 13.8244V26.1902C324.64 26.1902 325.021 26.1902 325.275 26.1902C329.082 26.1902 331.874 25.7463 333.715 24.7951C334.476 24.4146 335.238 23.8439 335.872 23.2097C336.507 22.5756 336.888 22.0683 336.888 21.6878C336.888 19.9756 335.809 18.2634 333.588 16.678C331.494 15.0927 329.273 14.2049 326.988 14.0146Z" fill="#3A5581"/>
<path d="M358.527 24.6049C357.829 27.1414 356.877 30.8829 355.608 35.9561C355.29 37.7317 355.037 39.4439 354.783 41.1561C354.148 43.3756 353.006 44.4536 351.293 44.4536C350.214 44.4536 349.389 44.0732 348.754 43.3756C348.247 42.7414 347.993 42.0439 347.993 41.1561C347.993 38.6195 348.5 35.5756 349.579 31.961C351.166 26.5707 352.054 23.5902 352.181 22.9561C352.625 20.5463 353.069 18.2 353.577 15.7902C354.275 12.4927 355.037 10.3366 355.861 9.1951C356.686 8.11705 357.702 7.54632 358.908 7.54632C360.304 7.54632 361.382 8.24388 362.017 9.70242C362.652 11.0341 363.286 13.8244 364.048 17.9463C364.746 22.0049 365.761 26.3171 367.094 31.0097C368.87 26.4439 370.52 21.3707 372.043 15.8536L373.313 10.5268C374.138 8.3073 375.47 7.22925 377.184 7.22925C378.897 7.22925 380.103 8.49754 380.928 11.0975C381.245 12.1122 381.626 14.078 382.006 16.9317C382.895 23.5268 384.037 29.1707 385.37 33.8634C386.766 38.6195 387.464 41.2195 387.464 41.6634C387.464 42.5512 387.083 43.3122 386.385 43.9463C385.687 44.5171 384.925 44.7707 384.1 44.7707C382.387 44.7707 381.181 43.5658 380.356 41.1561L379.087 35.5122C378.326 32.7219 377.564 28.7268 376.676 23.5268C375.978 25.6195 374.836 28.8536 373.186 33.2927L371.79 37.5414C371.218 39.2536 370.647 40.6488 370.013 41.7268C369.188 43.1853 368.046 43.8829 366.586 43.8829C365.126 43.8829 364.048 42.9951 363.223 41.2829L361.954 36.9707C360.621 33.1024 359.542 28.9171 358.527 24.6049Z" fill="#3A5581"/>
<path d="M71.137 16.2975C68.5987 16.2975 66.8218 18.8341 67.7103 21.1805L59.4607 27.6488C58.5723 27.078 57.4935 26.8878 56.4781 27.1414L51.2111 19.278C51.7187 18.6439 51.9726 17.8829 51.9726 17.0585C51.9726 15.0292 50.3227 13.4439 48.3555 13.4439C46.3882 13.4439 44.7383 15.0927 44.7383 17.0585C44.7383 18.2 45.246 19.2146 46.071 19.8488L41.5019 31.6439C40.8674 31.6439 40.2962 31.7707 39.7251 32.0244L38.1387 30.3756C39.4078 27.9658 37.631 25.0488 34.9023 25.0488C32.3639 25.0488 30.6506 27.5219 31.4755 29.9317L26.6527 33.6097C26.0816 33.2292 25.3835 32.9756 24.622 32.9756C22.5913 32.9756 21.0049 34.6244 21.0049 36.5902C21.0049 38.5561 22.6548 40.2049 24.622 40.2049C27.1603 40.2049 28.8737 37.7317 28.0488 35.3219L32.8716 31.5805C33.9504 32.3414 35.3465 32.4049 36.4887 31.8341L38.0752 33.4829C36.806 35.8927 38.5829 38.8097 41.3116 38.8097C43.3422 38.8097 44.9287 37.1609 44.9287 35.1951C44.9287 34.0536 44.421 33.039 43.5961 32.4049L48.2285 20.6731C48.6093 20.6731 48.99 20.6731 49.3708 20.5463L54.6378 28.4097C54.1302 29.0439 53.8763 29.8049 53.8763 30.6292C53.8763 32.6585 55.5263 34.2439 57.4935 34.2439C60.0318 34.2439 61.8086 31.7073 60.9202 29.361L69.1698 22.8927C69.7409 23.2731 70.439 23.5268 71.2005 23.5268C73.2311 23.5268 74.8176 21.878 74.8176 19.9122C74.8176 17.9463 73.1677 16.2975 71.137 16.2975ZM24.622 37.9853C23.8605 37.9853 23.2894 37.3512 23.2894 36.6536C23.2894 35.8927 23.924 35.3219 24.622 35.3219C25.5739 35.3219 26.2085 36.2731 25.8912 37.1609C25.7008 37.6049 25.2566 37.9853 24.622 37.9853ZM34.9023 27.3317C35.5369 27.3317 36.108 27.7756 36.2349 28.4097C36.4253 29.2341 35.7907 30.0585 34.9023 30.0585C33.9504 30.0585 33.3158 29.1073 33.6331 28.2195C33.8235 27.7122 34.3311 27.3317 34.9023 27.3317ZM41.3116 36.5902C40.5501 36.5902 39.9789 35.9561 39.9789 35.2585C39.9789 34.3707 40.8039 33.7366 41.6289 33.9268C42.1365 34.0536 42.5173 34.4341 42.6442 35.0049C42.8346 35.8292 42.2 36.5902 41.3116 36.5902ZM47.8478 18.2634C47.3401 18.0731 47.0228 17.5658 47.0228 17.0585C47.0228 16.2975 47.6574 15.7268 48.3555 15.7268C49.117 15.7268 49.6881 16.361 49.6881 17.0585C49.7515 18.0097 48.7362 18.6439 47.8478 18.2634ZM57.4935 32.0244C56.732 32.0244 56.1608 31.3902 56.1608 30.6927C56.1608 29.678 57.1762 29.0439 58.0646 29.4878C58.6992 29.8049 59.0165 30.5024 58.7626 31.2C58.5723 31.6439 58.0646 32.0244 57.4935 32.0244ZM71.137 21.3073C70.3755 21.3073 69.8044 20.6731 69.8044 19.9756C69.8044 19.278 70.3755 18.6439 71.137 18.6439C71.8985 18.6439 72.4696 19.278 72.4696 19.9756C72.5331 20.6731 71.8985 21.3073 71.137 21.3073Z" fill="#3A5581"/>
<path d="M24.6221 40.0146C22.7818 40.0146 21.2588 38.4927 21.2588 36.6536C21.2588 33.9268 24.3048 32.3414 26.5258 33.8634L26.7162 33.9902L31.7929 30.0585L31.7294 29.8049C30.9679 27.5853 32.5544 25.3024 34.9023 25.3024C37.4407 25.3024 39.0906 27.9658 37.8849 30.2488L37.8214 30.439L39.6617 32.3414C40.4867 31.961 40.9309 31.8975 41.6924 31.961L46.3883 19.7853L46.2614 19.6585C45.4999 19.0244 45.0557 18.0731 45.0557 17.0585C45.0557 15.2195 46.5787 13.6975 48.419 13.6975C51.2112 13.6975 52.7976 16.9317 51.0842 19.1512L50.9573 19.278L56.4147 27.5219C56.6686 27.4585 56.9859 27.3317 57.4935 27.3317C58.1281 27.3317 58.8262 27.5219 59.3338 27.9024L59.5242 28.0292L68.0276 21.3073L67.9642 21.1171C67.1392 18.8975 68.7891 16.6146 71.1371 16.6146C72.9774 16.6146 74.5004 18.1366 74.5004 19.9756C74.5004 22.639 71.5178 24.2878 69.2333 22.7658L69.043 22.639L60.603 29.361L60.6665 29.5512C61.4914 31.7707 59.8415 34.0536 57.4935 34.0536C54.7014 34.0536 53.1149 30.8195 54.8283 28.6L54.9552 28.4732L49.4978 20.2292C48.7997 20.4195 48.5459 20.4195 48.0382 20.4195L43.3423 32.5951L43.4692 32.7219C44.2307 33.3561 44.6749 34.3073 44.6749 35.3219C44.6749 37.161 43.1519 38.6829 41.3116 38.6829C38.7733 38.6829 37.1234 36.0195 38.3291 33.7366L38.3926 33.5463L36.5523 31.6439C36.2984 31.7707 35.7273 32.0878 34.9023 32.0878C34.2043 32.0878 33.5697 31.8975 32.9986 31.5171L32.8082 31.3902L27.7315 35.3219L27.795 35.5122C28.1758 36.5268 27.9854 37.6683 27.3508 38.5561C26.7797 39.5073 25.7643 40.0146 24.6221 40.0146ZM24.6221 35.0049C23.7337 35.0049 22.9722 35.7024 22.9722 36.6536C22.9722 37.5414 23.6702 38.3024 24.6221 38.3024C25.8913 38.3024 26.7162 36.8439 25.9547 35.7658C25.7009 35.2585 25.1932 35.0049 24.6221 35.0049ZM39.7252 35.2585C39.7252 36.7805 41.6289 37.478 42.5808 36.2731C43.3423 35.3219 42.8981 33.9268 41.6924 33.6731C40.6771 33.4195 39.7252 34.1805 39.7252 35.2585ZM55.8436 30.6927C55.8436 31.5805 56.5417 32.3414 57.4935 32.3414C58.1916 32.3414 58.7627 31.8975 59.0165 31.2634C59.3338 30.439 58.9531 29.6146 58.1281 29.2341C57.0493 28.7268 55.8436 29.4878 55.8436 30.6927ZM34.9023 27.0146C33.5697 27.0146 32.8082 28.4731 33.5697 29.5512C34.2043 30.439 35.4735 30.5024 36.1715 29.6146C37.0599 28.6 36.2984 27.0146 34.9023 27.0146ZM71.1371 18.3268C70.2487 18.3268 69.4872 19.0244 69.4872 19.9756C69.4872 20.8634 70.1852 21.6244 71.1371 21.6244C72.089 21.6244 72.787 20.9268 72.787 19.9756C72.787 19.0244 72.0255 18.3268 71.1371 18.3268ZM48.419 15.4097C47.5306 15.4097 46.7691 16.1073 46.7691 17.0585C46.7691 17.9463 47.5306 18.7073 48.419 18.7073C49.3074 18.7073 50.0689 18.0097 50.0689 17.0585C50.0054 16.1073 49.3074 15.4097 48.419 15.4097Z" fill="#3A5581"/>
<path d="M45.8806 9.00487C51.7822 9.00487 55.9705 14.7756 54.1302 20.4195C55.1455 19.4683 56.5416 19.0244 57.8742 19.278C60.5395 19.7219 62.2528 22.3854 61.4279 25.0488L64.9181 22.3219C64.2835 18.8341 61.4279 16.1707 57.8107 15.9171C56.9223 10.1463 51.9091 5.70731 45.8806 5.70731C41.4385 5.70731 37.5675 8.11706 35.4734 11.6683C36.6156 11.9219 37.7579 12.239 38.7732 12.8097C40.3597 10.4634 42.9615 9.00487 45.8806 9.00487Z" fill="url(#paint0_linear_19_5102)"/>
<path d="M67.4564 25.4293L64.6642 27.5854C67.7737 29.5512 68.5352 33.6732 66.5045 36.6537C65.4257 36.6537 52.1629 36.6537 51.5283 36.6537C50.7034 35.3219 48.4823 31.5171 46.3247 27.9024L44.7383 31.961C47.0862 35.9561 49.3073 39.6976 49.5611 40.078C50.3861 40.078 67.1391 40.078 68.0275 40.078C72.2792 36.0195 72.0254 29.1707 67.4564 25.4293Z" fill="url(#paint1_linear_19_5102)"/>
<path d="M19.6722 35.1317C17.705 31.6439 20.2433 27.3317 24.2412 27.3317C25.5104 27.3317 26.7161 27.7756 27.6045 28.6C26.7161 27.3951 26.2084 25.8732 26.3353 24.2244C26.5892 20.8 29.4448 18.1366 32.8716 18.1366C35.283 18.1366 37.504 19.4683 38.6463 21.561C38.8367 21.8781 40.2962 24.4146 42.1365 27.4585L43.7229 23.4C42.898 22.0049 42.1999 20.8 41.8192 20.1659C40.3597 17.2488 37.4406 15.1561 34.1407 14.7756C28.4295 14.0781 23.2893 18.3268 22.9721 24.0342C18.9742 24.6683 15.8647 28.0293 15.6743 32.0878C10.1535 33.8 7.29783 39.8244 9.3285 45.1512C12.311 45.1512 61.174 45.1512 63.8393 45.1512L67.0122 41.7268C66.0603 41.7268 13.6437 41.7268 12.1207 41.7268C11.9937 37.6683 15.6743 34.4976 19.6722 35.1317Z" fill="url(#paint2_linear_19_5102)"/>
<path d="M61.872 24.2878C62.2527 21.4976 60.0951 18.8976 57.176 18.8976C56.2876 18.8976 55.3992 19.1512 54.6377 19.6585C55.9069 14.2049 51.7821 8.6878 45.8805 8.6878C43.0883 8.6878 40.423 10.0195 38.7097 12.3024C37.8212 11.8585 36.8694 11.5415 35.9175 11.3512C38.0751 7.92682 41.8826 5.83414 45.8805 5.83414C51.4013 5.83414 56.6049 9.76584 57.6203 16.0439H57.8106C61.1739 16.2976 63.9661 18.7707 64.6007 22.0683L61.872 24.2878Z" fill="url(#paint3_linear_19_5102)"/>
<path d="M49.8148 39.8244C49.4975 39.3171 45.1189 31.8976 45.1189 31.8976L46.4515 28.4732L51.4013 36.9707H66.6313C68.9793 33.6098 67.9005 29.6146 65.1083 27.6488L67.3928 25.8098C71.6445 29.4244 71.8349 35.8927 67.9005 39.8244H49.8148Z" fill="url(#paint4_linear_19_5102)"/>
<path d="M9.51879 44.8976C7.74196 40.0146 10.0899 34.1805 15.9281 32.3414C16.1185 28.3463 18.8472 24.9854 23.2258 24.2878C23.6066 18.2634 28.7467 14.3951 34.1406 15.0293C37.377 15.4097 40.1692 17.3756 41.6287 20.2927L43.469 23.4L42.1364 26.8244L38.9635 21.561C38.1385 19.7219 35.854 17.8195 32.8715 17.8195C27.8583 17.8195 24.495 23.0829 26.716 27.6488C25.9545 27.2683 25.0661 27.0146 24.1777 27.0146C20.1798 27.0146 17.5145 31.2 19.1645 34.7512C15.1666 34.4341 11.6129 37.6049 11.7398 41.7268V41.9805H66.3141L63.6488 44.8341L9.51879 44.8976Z" fill="url(#paint5_linear_19_5102)"/>
<defs>
<linearGradient id="paint0_linear_19_5102" x1="93.3616" y1="-9.88166" x2="6.70608" y2="42.8276" gradientUnits="userSpaceOnUse">
<stop stop-color="white"/>
<stop offset="0.0859" stop-color="#C5CCE4"/>
<stop offset="0.1704" stop-color="#94A1CD"/>
<stop offset="0.2498" stop-color="#6E7FBB"/>
<stop offset="0.3227" stop-color="#5367AE"/>
<stop offset="0.3869" stop-color="#4258A6"/>
<stop offset="0.4355" stop-color="#3C53A3"/>
<stop offset="1" stop-color="#252064"/>
</linearGradient>
<linearGradient id="paint1_linear_19_5102" x1="103.103" y1="6.13098" x2="16.4451" y2="58.8415" gradientUnits="userSpaceOnUse">
<stop stop-color="white"/>
<stop offset="0.0859" stop-color="#C5CCE4"/>
<stop offset="0.1704" stop-color="#94A1CD"/>
<stop offset="0.2498" stop-color="#6E7FBB"/>
<stop offset="0.3227" stop-color="#5367AE"/>
<stop offset="0.3869" stop-color="#4258A6"/>
<stop offset="0.4355" stop-color="#3C53A3"/>
<stop offset="1" stop-color="#252064"/>
</linearGradient>
<linearGradient id="paint2_linear_19_5102" x1="98.5247" y1="-1.39429" x2="11.868" y2="51.3157" gradientUnits="userSpaceOnUse">
<stop stop-color="white"/>
<stop offset="0.0859" stop-color="#C5CCE4"/>
<stop offset="0.1704" stop-color="#94A1CD"/>
<stop offset="0.2498" stop-color="#6E7FBB"/>
<stop offset="0.3227" stop-color="#5367AE"/>
<stop offset="0.3869" stop-color="#4258A6"/>
<stop offset="0.4355" stop-color="#3C53A3"/>
<stop offset="1" stop-color="#252064"/>
</linearGradient>
<linearGradient id="paint3_linear_19_5102" x1="-13.7435" y1="52.9347" x2="71.2946" y2="4.09975" gradientUnits="userSpaceOnUse">
<stop stop-color="white"/>
<stop offset="0.0859" stop-color="#C5CCE4"/>
<stop offset="0.1704" stop-color="#94A1CD"/>
<stop offset="0.2498" stop-color="#6E7FBB"/>
<stop offset="0.3227" stop-color="#5367AE"/>
<stop offset="0.3869" stop-color="#4258A6"/>
<stop offset="0.4355" stop-color="#3C53A3"/>
<stop offset="1" stop-color="#252064"/>
</linearGradient>
<linearGradient id="paint4_linear_19_5102" x1="-5.19556" y1="69.9546" x2="80.9378" y2="20.4906" gradientUnits="userSpaceOnUse">
<stop stop-color="white"/>
<stop offset="0.0859" stop-color="#C5CCE4"/>
<stop offset="0.1704" stop-color="#94A1CD"/>
<stop offset="0.2498" stop-color="#6E7FBB"/>
<stop offset="0.3227" stop-color="#5367AE"/>
<stop offset="0.3869" stop-color="#4258A6"/>
<stop offset="0.4355" stop-color="#3C53A3"/>
<stop offset="1" stop-color="#252064"/>
</linearGradient>
<linearGradient id="paint5_linear_19_5102" x1="-10.3797" y1="62.8435" x2="76.1394" y2="13.158" gradientUnits="userSpaceOnUse">
<stop stop-color="white"/>
<stop offset="0.0859" stop-color="#C5CCE4"/>
<stop offset="0.1704" stop-color="#94A1CD"/>
<stop offset="0.2498" stop-color="#6E7FBB"/>
<stop offset="0.3227" stop-color="#5367AE"/>
<stop offset="0.3869" stop-color="#4258A6"/>
<stop offset="0.4355" stop-color="#3C53A3"/>
<stop offset="1" stop-color="#252064"/>
</linearGradient>
</defs>
</svg>
