<svg width="322" height="277" viewBox="0 0 322 277" fill="none" xmlns="http://www.w3.org/2000/svg">
<path d="M11.3414 144.577C26.4446 162.747 45.5654 169.778 55.0142 191.819C61.487 206.908 58.4366 224.841 63.1982 240.641C69.7454 262.287 91.247 276.902 112.674 276.902C134.101 276.981 154.561 264.104 167.209 245.776C171.376 239.772 175.021 232.978 180.825 228.87C189.232 222.945 200.02 223.735 210.064 222.787C234.765 220.417 258.201 205.723 272.039 183.84C272.039 183.84 307.825 138.968 282.529 74.8196C275.164 56.1756 263.185 39.0326 246.743 28.8416C230.301 18.6506 201.657 18.4136 184.693 27.6566C166.689 37.4526 154.71 58.9406 134.92 63.6806C123.462 66.4456 111.633 62.8906 100.101 60.5206C83.9558 57.2816 67.439 55.2276 51.071 57.4396C31.8758 60.0466 12.4574 70.2376 3.45502 93.3056C0.33022 101.364 -0.71138 110.212 0.47902 118.823C1.66942 126.565 4.49662 136.361 11.3414 144.577Z" fill="#F5F5FF"/>
<path d="M159.918 12.0146C155.752 6.48461 149.279 3.48261 142.806 1.74461C133.878 -0.625389 124.281 -0.783389 115.576 2.53461C106.945 5.85261 99.2822 12.8836 96.083 22.0476C92.8838 31.2116 94.6694 42.4296 101.291 49.2236C105.011 53.0156 110.219 55.0696 115.353 55.0696C118.403 55.3856 121.528 55.0696 124.355 53.8846C130.753 51.2776 135.366 45.3526 141.467 42.1136C148.089 38.6376 156.645 38.0056 161.109 31.7646C165.201 26.0766 164.085 17.5446 159.918 12.0146Z" fill="#F5F5FF"/>
<path d="M40.3575 208.409C39.6879 206.908 39.0183 205.407 38.5719 203.748C37.2327 198.613 38.1999 192.688 35.5959 188.106C32.3223 182.339 24.2127 181.312 18.7071 184.63C13.2015 187.948 10.0767 194.584 8.73747 201.141C7.91907 205.17 7.69587 209.515 8.96067 213.386C10.4487 217.968 13.9455 221.444 17.7399 224.13C21.9063 227.132 26.8167 229.344 31.8759 229.107C34.1079 229.028 36.4143 228.396 38.3487 227.29C39.9111 226.579 41.3247 225.473 42.2919 223.972C42.9615 223.103 43.5567 222.155 44.0031 221.049C45.8631 216.625 44.3007 210.7 40.3575 208.409Z" fill="#F5F5FF"/>
<path d="M239.229 208.014H81.6496C80.1616 208.014 78.9712 206.75 78.9712 205.17V97.8086C78.9712 96.2286 80.1616 94.9646 81.6496 94.9646H239.154C240.642 94.9646 241.833 96.2286 241.833 97.8086V205.17C241.907 206.75 240.642 208.014 239.229 208.014Z" fill="#7B70EE"/>
<path d="M237.815 103.181H82.9888V197.033H237.815V103.181Z" fill="#D5CBFB"/>
<path d="M161.406 98.7566C161.406 99.3096 160.96 99.7836 160.439 99.7836C159.918 99.7836 159.472 99.3096 159.472 98.7566C159.472 98.2036 159.918 97.7296 160.439 97.7296C160.96 97.7296 161.406 98.1246 161.406 98.7566Z" fill="#D5CBFB"/>
<path d="M263.781 244.907L243.767 211.095C242.651 209.199 240.642 208.014 238.559 208.014H156.942H152.404H82.2447C80.0871 208.014 78.1527 209.199 77.0367 211.095L57.0231 244.907C56.4279 245.855 56.2791 247.04 56.4279 248.067H264.376C264.599 246.961 264.376 245.855 263.781 244.907Z" fill="#D5CBFB"/>
<path d="M56.428 248.067C56.428 248.304 56.5024 248.541 56.5768 248.778L56.8744 249.805C57.4696 251.701 59.1064 252.886 60.9664 252.886H152.404H156.942H259.838C261.698 252.886 263.334 251.622 263.93 249.805L264.227 248.778C264.302 248.541 264.376 248.304 264.376 248.067H56.428Z" fill="#7B70EE"/>
<path d="M89.8335 224.683L90.8007 222.392H85.9647L84.9231 224.683H89.8335Z" fill="#7B70EE"/>
<path d="M98.3151 218.205L98.7615 217.02L99.2079 215.914H94.5951L93.5535 218.205H98.3151Z" fill="#7B70EE"/>
<path d="M91.768 222.392L90.8008 224.683H95.7112L96.604 222.392H91.768Z" fill="#7B70EE"/>
<path d="M91.1727 221.444L92.2143 219.153H87.4527L86.4111 221.444H91.1727Z" fill="#7B70EE"/>
<path d="M189.381 215.914L189.902 218.205H194.068L193.473 215.914H189.381Z" fill="#7B70EE"/>
<path d="M114.981 222.392L114.311 224.683H119.221L119.891 222.392H114.981Z" fill="#7B70EE"/>
<path d="M109.252 222.392L108.434 224.683H113.344L114.014 222.392H109.252Z" fill="#7B70EE"/>
<path d="M103.449 222.392L102.556 224.683H107.466L108.285 222.392H103.449Z" fill="#7B70EE"/>
<path d="M97.5713 222.392L96.6785 224.683H101.589L102.482 222.392H97.5713Z" fill="#7B70EE"/>
<path d="M194.44 215.914L195.035 218.205H198.904L198.234 215.914H194.44Z" fill="#7B70EE"/>
<path d="M131.646 219.153L131.125 221.444H134.994L135.515 219.153H131.646Z" fill="#7B70EE"/>
<path d="M173.98 215.914L174.352 218.205H178.816L178.37 215.914H173.98Z" fill="#7B70EE"/>
<path d="M130.977 218.205L131.498 215.914H127.406L126.81 218.205H130.977Z" fill="#7B70EE"/>
<path d="M125.843 218.205L126.438 215.914H122.644L121.974 218.205H125.843Z" fill="#7B70EE"/>
<path d="M135.664 218.205L136.185 215.914H132.39L131.87 218.205H135.664Z" fill="#7B70EE"/>
<path d="M199.202 215.914L199.797 218.205H204.707L204.038 215.914H199.202Z" fill="#7B70EE"/>
<path d="M111.41 215.914L110.666 218.205H115.278L115.576 217.02L115.874 215.914H111.41Z" fill="#7B70EE"/>
<path d="M109.698 218.205L110.442 215.914H105.904L105.011 218.205H109.698Z" fill="#7B70EE"/>
<path d="M100.249 215.914L99.2822 218.205H104.044L104.49 217.02L104.862 215.914H100.249Z" fill="#7B70EE"/>
<path d="M184.694 215.914L185.14 218.205H189.009L188.414 215.914H184.694Z" fill="#7B70EE"/>
<path d="M179.337 215.914L179.709 218.205H184.247L183.726 215.914H179.337Z" fill="#7B70EE"/>
<path d="M121.007 218.205L121.677 215.914H116.841L116.171 218.205H121.007Z" fill="#7B70EE"/>
<path d="M126.736 214.966L127.257 212.833H123.462L122.867 214.966H126.736Z" fill="#7B70EE"/>
<path d="M121.9 214.966L122.495 212.833H117.734L117.138 214.966H121.9Z" fill="#7B70EE"/>
<path d="M168.623 215.914L168.921 218.205H173.385L173.013 215.914H168.623Z" fill="#7B70EE"/>
<path d="M141.69 214.966L142.137 212.833H137.747L137.301 214.966H141.69Z" fill="#7B70EE"/>
<path d="M136.408 214.966L136.854 212.833H133.134L132.688 214.966H136.408Z" fill="#7B70EE"/>
<path d="M131.721 214.966L132.241 212.833H128.224L127.629 214.966H131.721Z" fill="#7B70EE"/>
<path d="M221.67 215.914L222.563 218.205H227.25L226.283 215.914H221.67Z" fill="#7B70EE"/>
<path d="M99.5798 214.966L100.473 212.833H95.8598L94.967 214.966H99.5798Z" fill="#7B70EE"/>
<path d="M105.234 214.966L106.053 212.833H101.44L100.622 214.966H105.234Z" fill="#7B70EE"/>
<path d="M116.171 214.966L116.766 212.833H112.451L111.707 214.966H116.171Z" fill="#7B70EE"/>
<path d="M227.325 215.914L228.292 218.205H232.979L231.938 215.914H227.325Z" fill="#7B70EE"/>
<path d="M110.74 214.966L111.484 212.833H107.02L106.202 214.966H110.74Z" fill="#7B70EE"/>
<path d="M204.93 215.914L205.6 218.205H210.213L209.469 215.914H204.93Z" fill="#7B70EE"/>
<path d="M141.244 222.392L140.872 224.683H145.485L145.857 222.392H141.244Z" fill="#7B70EE"/>
<path d="M120.858 222.392L120.189 224.683H124.132L124.727 222.392H120.858Z" fill="#7B70EE"/>
<path d="M135.738 222.392L135.292 224.683H139.905L140.351 222.392H135.738Z" fill="#7B70EE"/>
<path d="M125.694 222.392L125.099 224.683H129.414L129.935 222.392H125.694Z" fill="#7B70EE"/>
<path d="M130.902 222.392L130.382 224.683H134.325L134.846 222.392H130.902Z" fill="#7B70EE"/>
<path d="M147.866 215.914L147.494 218.205H151.958L152.181 215.914H147.866Z" fill="#7B70EE"/>
<path d="M147.047 214.966L147.419 212.833H143.029L142.657 214.966H147.047Z" fill="#7B70EE"/>
<path d="M141.839 219.153L141.467 221.444H146.005L146.377 219.153H141.839Z" fill="#7B70EE"/>
<path d="M215.942 215.914L216.834 218.205H221.596L220.629 215.914H215.942Z" fill="#7B70EE"/>
<path d="M151.585 221.444L151.883 219.153H147.345L146.973 221.444H151.585Z" fill="#7B70EE"/>
<path d="M210.436 215.914L211.18 218.205H215.867L214.974 215.914H210.436Z" fill="#7B70EE"/>
<path d="M92.5864 218.205L93.5536 215.914H88.9408L87.8992 218.205H92.5864Z" fill="#7B70EE"/>
<path d="M195.779 224.683L195.184 222.392H190.943L191.464 224.683H195.779Z" fill="#7B70EE"/>
<path d="M126.513 219.153L125.917 221.444H130.158L130.753 219.153H126.513Z" fill="#7B70EE"/>
<path d="M203.74 214.966L203.145 212.833H198.383L198.904 214.966H203.74Z" fill="#7B70EE"/>
<path d="M214.602 214.966L213.858 212.833H209.394L210.064 214.966H214.602Z" fill="#7B70EE"/>
<path d="M209.097 214.966L208.427 212.833H204.112L204.707 214.966H209.097Z" fill="#7B70EE"/>
<path d="M183.577 214.966L183.131 212.833H178.741L179.113 214.966H183.577Z" fill="#7B70EE"/>
<path d="M178.221 214.966L177.849 212.833H173.459L173.831 214.966H178.221Z" fill="#7B70EE"/>
<path d="M220.257 214.966L219.438 212.833H214.826L215.644 214.966H220.257Z" fill="#7B70EE"/>
<path d="M193.25 214.966L192.654 212.833H188.637L189.158 214.966H193.25Z" fill="#7B70EE"/>
<path d="M188.19 214.966L187.744 212.833H184.024L184.47 214.966H188.19Z" fill="#7B70EE"/>
<path d="M190.497 224.683L189.976 222.392H186.033L186.554 224.683H190.497Z" fill="#7B70EE"/>
<path d="M224.2 224.683L223.233 222.392H218.397L219.29 224.683H224.2Z" fill="#7B70EE"/>
<path d="M212.445 224.683L211.626 222.392H206.865L207.46 224.683H212.445Z" fill="#7B70EE"/>
<path d="M235.955 224.683L234.914 222.392H230.078L231.045 224.683H235.955Z" fill="#7B70EE"/>
<path d="M230.078 224.683L229.11 222.392H224.274L225.167 224.683H230.078Z" fill="#7B70EE"/>
<path d="M218.322 224.683L217.43 222.392H212.594L213.412 224.683H218.322Z" fill="#7B70EE"/>
<path d="M185.586 224.683L185.14 222.392H180.527L180.974 224.683H185.586Z" fill="#7B70EE"/>
<path d="M225.911 214.966L225.018 212.833H220.406L221.224 214.966H225.911Z" fill="#7B70EE"/>
<path d="M234.021 218.205H238.336L237.146 215.914H232.979L234.021 218.205Z" fill="#7B70EE"/>
<path d="M200.689 224.683L200.02 222.392H196.077L196.672 224.683H200.689Z" fill="#7B70EE"/>
<path d="M231.491 214.966L230.524 212.833H225.986L226.878 214.966H231.491Z" fill="#7B70EE"/>
<path d="M206.567 224.683L205.897 222.392H200.987L201.582 224.683H206.567Z" fill="#7B70EE"/>
<path d="M236.625 214.966L235.509 212.833H231.566L232.533 214.966H236.625Z" fill="#7B70EE"/>
<path d="M198.011 214.966L197.416 212.833H193.622L194.142 214.966H198.011Z" fill="#7B70EE"/>
<path d="M168.697 224.683L168.474 222.392H163.713L163.861 224.683H168.697Z" fill="#7B70EE"/>
<path d="M98.9104 219.153L98.464 220.338L98.0176 221.444H102.779L103.672 219.153H98.9104Z" fill="#7B70EE"/>
<path d="M173.906 221.444L173.534 219.153H168.995L169.293 221.444H173.906Z" fill="#7B70EE"/>
<path d="M96.976 221.444L97.9432 219.153H93.1816L92.6608 220.338L92.2144 221.444H96.976Z" fill="#7B70EE"/>
<path d="M137.077 215.914L136.631 218.205H141.095L141.541 215.914H137.077Z" fill="#7B70EE"/>
<path d="M142.509 215.914L142.062 218.205H146.526L146.898 215.914H142.509Z" fill="#7B70EE"/>
<path d="M115.948 219.153L115.278 221.444H120.114L120.784 219.153H115.948Z" fill="#7B70EE"/>
<path d="M104.639 219.153L103.821 221.444H108.582L109.326 219.153H104.639Z" fill="#7B70EE"/>
<path d="M121.751 219.153L121.082 221.444H125.025L125.62 219.153H121.751Z" fill="#7B70EE"/>
<path d="M163.638 219.153L163.713 221.444H168.326L168.102 219.153H163.638Z" fill="#7B70EE"/>
<path d="M110.294 219.153L109.55 221.444H114.311L114.981 219.153H110.294Z" fill="#7B70EE"/>
<path d="M167.656 214.966L167.433 212.833H163.415L163.489 214.966H167.656Z" fill="#7B70EE"/>
<path d="M180.006 224.683L179.634 222.392H175.021L175.393 224.683H180.006Z" fill="#7B70EE"/>
<path d="M158.356 212.833L158.281 214.966H162.522L162.448 212.833H158.356Z" fill="#7B70EE"/>
<path d="M158.281 215.914L158.207 218.205H162.671L162.597 215.914H158.281Z" fill="#7B70EE"/>
<path d="M168.028 218.205L167.73 215.914H163.49L163.564 218.205H168.028Z" fill="#7B70EE"/>
<path d="M172.864 214.966L172.566 212.833H168.326L168.549 214.966H172.864Z" fill="#7B70EE"/>
<path d="M158.133 219.153L158.058 221.444H162.82L162.746 219.153H158.133Z" fill="#7B70EE"/>
<path d="M158.058 222.392L157.91 224.683H162.894L162.82 222.392H158.058Z" fill="#7B70EE"/>
<path d="M157.389 214.966L157.463 212.833H153.446L153.222 214.966H157.389Z" fill="#7B70EE"/>
<path d="M148.014 214.966H152.33L152.553 212.833H148.312L148.014 214.966Z" fill="#7B70EE"/>
<path d="M179.411 221.444L178.965 219.153H174.501L174.873 221.444H179.411Z" fill="#7B70EE"/>
<path d="M136.408 219.153L135.961 221.444H140.5L140.946 219.153H136.408Z" fill="#7B70EE"/>
<path d="M78.5247 225.631L77.4832 227.606H82.6167L83.5095 225.631H78.5247Z" fill="#7B70EE"/>
<path d="M199.797 221.444L199.127 219.153H195.258L195.854 221.444H199.797Z" fill="#7B70EE"/>
<path d="M196.969 225.631L197.49 227.606H201.508L200.913 225.631H196.969Z" fill="#7B70EE"/>
<path d="M189.753 221.444L189.232 219.153H185.363L185.884 221.444H189.753Z" fill="#7B70EE"/>
<path d="M157.017 224.683L157.091 222.392H152.404L152.181 224.683H157.017Z" fill="#7B70EE"/>
<path d="M213.709 225.631L214.379 227.606H219.438L218.694 225.631H213.709Z" fill="#7B70EE"/>
<path d="M228.664 221.444L227.697 219.153H222.935L223.828 221.444H228.664Z" fill="#7B70EE"/>
<path d="M219.662 225.631L220.406 227.606H225.39L224.572 225.631H219.662Z" fill="#7B70EE"/>
<path d="M146.824 222.392L146.452 224.683H151.288L151.511 222.392H146.824Z" fill="#7B70EE"/>
<path d="M80.3105 222.392L79.0457 224.683H83.9561L84.9977 222.392H80.3105Z" fill="#7B70EE"/>
<path d="M169.739 225.631L169.962 227.606H174.947L174.575 225.631H169.739Z" fill="#7B70EE"/>
<path d="M96.3064 225.631L95.488 227.606H100.473L101.217 225.631H96.3064Z" fill="#7B70EE"/>
<path d="M157.017 225.631H152.032L151.809 227.606H156.942L157.017 225.631Z" fill="#7B70EE"/>
<path d="M222.861 221.444L221.968 219.153H217.206L218.025 221.444H222.861Z" fill="#7B70EE"/>
<path d="M84.4768 225.631L83.584 227.606H88.5688L89.3872 225.631H84.4768Z" fill="#7B70EE"/>
<path d="M179.932 219.153L180.378 221.444H184.917L184.47 219.153H179.932Z" fill="#7B70EE"/>
<path d="M201.88 225.631L202.401 227.606H207.386L206.79 225.631H201.88Z" fill="#7B70EE"/>
<path d="M181.122 225.631L181.494 227.606H186.256L185.81 225.631H181.122Z" fill="#7B70EE"/>
<path d="M205.6 221.444L204.93 219.153H200.094L200.689 221.444H205.6Z" fill="#7B70EE"/>
<path d="M211.329 221.444L210.585 219.153H205.897L206.567 221.444H211.329Z" fill="#7B70EE"/>
<path d="M175.542 225.631L175.84 227.606H180.601L180.229 225.631H175.542Z" fill="#7B70EE"/>
<path d="M207.758 225.631L208.353 227.606H213.412L212.742 225.631H207.758Z" fill="#7B70EE"/>
<path d="M83.7326 215.914L82.5422 218.205H86.8574L87.899 215.914H83.7326Z" fill="#7B70EE"/>
<path d="M231.491 225.631L232.31 227.606H237.294L236.402 225.631H231.491Z" fill="#7B70EE"/>
<path d="M85.3697 212.833L84.2537 214.966H88.3457L89.3129 212.833H85.3697Z" fill="#7B70EE"/>
<path d="M217.058 221.444L216.239 219.153H211.552L212.296 221.444H217.058Z" fill="#7B70EE"/>
<path d="M145.038 227.606L145.336 225.631H102.184L101.44 227.606H145.038Z" fill="#7B70EE"/>
<path d="M186.777 225.631L187.149 227.606H191.241L190.72 225.631H186.777Z" fill="#7B70EE"/>
<path d="M152.85 218.205H157.314L157.389 215.914H153.148L152.85 218.205Z" fill="#7B70EE"/>
<path d="M240.568 222.392H235.881L238.262 227.606H243.395L240.568 222.392Z" fill="#7B70EE"/>
<path d="M235.434 221.444H240.047L238.857 219.153H234.467L235.434 221.444Z" fill="#7B70EE"/>
<path d="M234.467 221.444L233.426 219.153H228.664L229.631 221.444H234.467Z" fill="#7B70EE"/>
<path d="M150.916 227.606L151.139 225.631H146.303L145.931 227.606H150.916Z" fill="#7B70EE"/>
<path d="M157.91 225.631L157.835 227.606H168.995L168.772 225.631H157.91Z" fill="#7B70EE"/>
<path d="M225.539 225.631L226.357 227.606H231.342L230.449 225.631H225.539Z" fill="#7B70EE"/>
<path d="M194.886 221.444L194.291 219.153H190.125L190.72 221.444H194.886Z" fill="#7B70EE"/>
<path d="M191.687 225.631L192.134 227.606H196.523L196.002 225.631H191.687Z" fill="#7B70EE"/>
<path d="M82.0214 219.153L80.8311 221.444H85.3694L86.4111 219.153H82.0214Z" fill="#7B70EE"/>
<path d="M93.9999 214.966L94.8927 212.833H90.2799L89.3127 214.966H93.9999Z" fill="#7B70EE"/>
<path d="M90.4287 225.631L89.5359 227.606H94.5207L95.3391 225.631H90.4287Z" fill="#7B70EE"/>
<path d="M157.166 221.444L157.24 219.153H152.776L152.553 221.444H157.166Z" fill="#7B70EE"/>
<path d="M174.054 222.392H169.367L169.59 224.683H174.426L174.054 222.392Z" fill="#7B70EE"/>
<path d="M188.86 244.591H132.018C131.795 244.591 131.572 244.433 131.423 244.275C131.274 244.038 131.274 243.801 131.274 243.564L134.92 231.082C134.994 230.766 135.292 230.529 135.664 230.529H185.289C185.586 230.529 185.884 230.766 186.033 231.082L189.678 243.564C189.753 243.801 189.678 244.038 189.53 244.275C189.306 244.512 189.083 244.591 188.86 244.591ZM135.59 231.24C135.59 231.24 135.515 231.24 135.515 231.319L131.87 243.801V243.88C131.87 243.88 131.87 243.88 131.944 243.88H188.786H188.86V243.801L185.214 231.319L185.14 231.24H135.59Z" fill="#7B70EE"/>
<path d="M188.042 117.559L126.29 127.908L185.661 159.429L247.19 149.712L188.042 117.559Z" fill="#1C1C84"/>
<path d="M126.29 127.908V129.409L185.735 162.352L247.19 151.213V149.712L185.661 159.429L126.29 127.908Z" fill="#2525AD"/>
<path d="M149.279 163.379L148.312 170.015C148.312 170.015 173.682 191.661 209.394 180.996L209.915 175.782C178.37 181.47 158.505 170.568 149.279 163.379Z" fill="#2525AD"/>
<path d="M224.572 198.534C221.298 195.769 218.918 191.661 217.802 187.316C217.727 187 217.281 187.079 217.281 187.395C217.206 187.316 217.058 187.237 216.909 187.316C216.834 187.079 216.537 187 216.388 187.237C214.156 191.898 215.867 197.191 217.355 201.773C217.504 202.168 217.876 201.931 217.727 201.615C216.537 197.981 215.272 193.952 216.016 190.16C215.644 194.979 217.132 199.877 219.885 203.748C220.108 203.985 220.406 203.669 220.182 203.432C217.653 199.956 216.388 195.532 216.537 191.187C216.611 192.925 216.834 194.663 217.355 196.243C218.174 198.771 219.513 201.141 220.778 203.274C221.001 203.59 221.298 203.274 221.075 202.958C219.81 200.825 218.694 198.534 217.876 196.164C217.504 195.137 217.281 194.11 217.132 193.004C217.876 196.48 219.513 199.798 221.745 202.484C221.968 202.8 222.34 202.484 222.042 202.247C219.513 199.324 218.025 195.532 217.43 191.661C218.322 195.295 220.034 198.692 222.266 201.694C222.489 202.01 222.712 201.694 222.489 201.378C220.331 198.534 218.843 195.137 217.95 191.582C219.141 195.216 220.778 198.771 223.53 201.378C223.828 201.615 224.125 201.299 223.828 201.062C221.893 199.245 220.629 196.875 219.587 194.426C220.703 196.559 222.042 198.534 223.605 200.272C223.828 200.588 224.051 200.114 223.828 199.798C222.489 198.218 221.373 196.48 220.406 194.663C221.447 196.164 222.712 197.507 224.051 198.692C224.498 198.929 224.795 198.771 224.572 198.534Z" fill="#F0C64B"/>
<path d="M218.694 148.053C217.429 146.394 215.644 145.367 213.858 144.419C210.287 142.602 206.344 141.812 202.549 141.022C197.118 139.916 191.538 138.889 187 135.255C186.851 135.097 186.628 135.176 186.553 135.334C186.479 135.492 186.405 135.65 186.553 135.808C189.901 139.205 194.291 140.864 198.681 141.97C203.07 143.155 207.609 143.945 211.775 145.841C211.924 145.92 212.073 145.92 212.147 145.999L212.296 146.078C212.519 146.157 212.742 146.315 212.965 146.394C213.784 146.789 214.528 147.263 215.272 147.816C216.165 148.448 216.909 149.238 217.504 150.186C218.099 151.213 218.322 152.398 218.322 153.662C218.322 154.926 218.099 156.19 217.876 157.454C217.653 158.718 217.504 160.061 217.281 161.325C216.909 164.011 216.537 166.697 216.239 169.383C215.644 175.308 215.495 181.391 216.462 187.316C216.537 187.79 217.206 187.632 217.206 187.237C216.834 181.628 217.281 176.019 218.025 170.41C218.397 167.645 218.843 164.88 219.289 162.115C219.736 159.508 220.257 156.901 220.48 154.294C220.703 152.082 220.182 149.87 218.694 148.053Z" fill="#F0C64B"/>
<path d="M216.239 187.948C216.313 187.948 216.388 187.869 216.462 187.869C216.537 187.869 216.537 187.869 216.462 187.869H216.537H216.611C216.76 187.79 216.909 187.79 217.057 187.79H217.132C217.206 187.79 217.281 187.79 217.355 187.79C217.429 187.79 217.504 187.79 217.578 187.79H217.653H217.727C217.653 187.79 217.653 187.79 217.727 187.79C217.801 187.79 217.95 187.79 218.025 187.79C218.099 187.711 218.173 187.632 218.173 187.553C218.248 187.395 218.099 187.079 217.95 187.079C217.281 186.921 216.537 187 215.867 187.395C215.718 187.474 215.644 187.79 215.718 187.948C215.867 187.948 216.09 188.027 216.239 187.948Z" fill="#D8A32B"/>
<path d="M216.165 187.158C216.239 187.158 216.314 187.079 216.388 187.079C216.462 187.079 216.462 187.079 216.388 187.079H216.462H216.537C216.686 187 216.834 187 216.983 187H217.058C217.132 187 217.206 187 217.281 187C217.355 187 217.43 187 217.504 187H217.578H217.653C217.578 187 217.578 187 217.653 187C217.727 187 217.876 187 217.95 187C218.025 186.921 218.099 186.842 218.099 186.763C218.174 186.605 218.025 186.289 217.876 186.289C217.206 186.131 216.462 186.21 215.793 186.605C215.644 186.684 215.57 187 215.644 187.158C215.793 187.158 216.016 187.237 216.165 187.158Z" fill="#D8A32B"/>
<path d="M211.849 160.14L212.147 157.533L185.735 162.352L152.404 143.945L151.734 148.29L185.065 166.065L211.849 160.14Z" fill="#0C0C5B"/>
<path d="M185.065 166.065L151.734 148.29L149.279 163.379C158.505 170.568 178.369 181.47 209.989 175.861L211.849 160.14L185.065 166.065Z" fill="#1C1C84"/>
<path d="M144.666 186.605C146.154 190.792 142.955 195.927 137.598 198.06C132.242 200.193 129.117 197.507 126.959 193.636C123.834 187.948 126.81 184.946 132.242 182.813C137.598 180.68 143.178 182.418 144.666 186.605Z" fill="#FFF6DC"/>
<path d="M90.8751 140.153C90.8751 140.153 104.267 154.768 115.204 180.996C115.204 180.996 120.412 195.216 123.834 198.771C123.834 198.771 121.081 195.453 125.322 190.239C128.447 186.368 132.911 183.998 137.673 183.84C140.351 183.761 143.104 184.314 144.741 186.684C144.741 186.684 126.959 164.406 115.278 145.209C110.591 137.546 108.433 131.147 107.466 126.328C107.466 126.328 106.573 125.222 104.862 124.353C98.4639 120.956 90.8751 125.538 89.7591 133.043C89.6847 133.754 89.6103 134.465 89.5359 135.255C89.4615 135.176 89.3871 138.494 90.8751 140.153Z" fill="white"/>
<path d="M123.834 198.771C123.834 198.771 129.712 206.276 142.955 197.27C142.955 197.27 151.139 191.503 147.047 181.391C147.047 181.391 138.565 174.676 131.869 166.144C125.173 157.612 116.915 145.999 109.996 130.673L108.21 129.567C108.21 129.567 109.475 136.835 117.659 149.159C125.843 161.404 140.946 181.944 140.946 181.944L143.253 184.867C144.592 186.526 145.038 188.896 144.294 190.95C143.253 193.873 140.202 197.349 131.646 197.902L126.289 189.133C126.289 189.054 121.081 193.557 123.834 198.771Z" fill="#F4E7BD"/>
<path d="M136.705 171.832C136.705 171.832 121.379 154.847 110.591 127.908C110.591 127.908 108.657 124.669 107.392 123.089C107.466 123.089 116.841 153.82 136.705 171.832Z" fill="white"/>
<path d="M108.508 166.855C111.707 160.693 118.701 156.585 125.322 156.901C127.703 157.059 127.703 153.899 125.322 153.741C117.436 153.346 109.624 157.533 105.83 164.801C105.83 164.88 107.392 169.067 108.508 166.855Z" fill="#F0C64B"/>
<path d="M84.7743 178.231H54.6423C50.6247 178.231 47.3511 174.755 47.3511 170.489V153.82C47.3511 149.554 50.6247 146.078 54.6423 146.078H84.7743C88.7919 146.078 92.0655 149.554 92.0655 153.82V170.489C91.9911 174.755 88.7175 178.231 84.7743 178.231Z" fill="#2525AD"/>
<path d="M64.9094 162.194V156.348L69.671 159.271L74.4326 162.194L69.671 165.117L64.9094 168.04V162.194Z" fill="#D5CBFB"/>
<path d="M60.9662 107.526C60.9662 97.7296 53.5262 89.8296 44.3006 89.8296C35.075 89.8296 27.635 97.7296 27.635 107.526C27.635 114.636 31.5782 120.719 37.2326 123.563V129.251H51.3686V123.563C57.023 120.719 60.9662 114.557 60.9662 107.526Z" fill="white"/>
<path d="M51.815 132.095H36.7118C35.9678 132.095 35.3726 131.463 35.3726 130.673C35.3726 129.883 35.9678 129.251 36.7118 129.251H51.815C52.559 129.251 53.1542 129.883 53.1542 130.673C53.1542 131.463 52.559 132.095 51.815 132.095Z" fill="#F0C64B"/>
<path d="M44.2263 140.39C41.1759 140.39 38.7207 137.783 38.7207 134.544V133.596H49.7319V134.544C49.8063 137.783 47.2767 140.39 44.2263 140.39Z" fill="#F0C64B"/>
<path d="M51.815 135.018H36.7118C35.9678 135.018 35.3726 134.386 35.3726 133.596C35.3726 132.806 35.9678 132.174 36.7118 132.174H51.815C52.559 132.174 53.1542 132.806 53.1542 133.596C53.1542 134.386 52.559 135.018 51.815 135.018Z" fill="#D8A32B"/>
<path d="M45.7886 129.172H44.9702V104.524C44.9702 104.129 44.6726 103.734 44.2262 103.734C43.8542 103.734 43.4822 104.05 43.4822 104.524V129.172H42.6638V104.524C42.6638 103.655 43.3334 102.944 44.1518 102.944C44.9702 102.944 45.6398 103.655 45.6398 104.524V129.172H45.7886Z" fill="#F0C64B"/>
<path d="M18.0375 101.443L17.5911 103.971L24.5847 105.393C24.6591 104.524 24.8079 103.655 25.0311 102.865L18.0375 101.443Z" fill="#7B70EE"/>
<path d="M23.5432 89.7506L22.0552 91.8046L27.6352 96.3076C28.0816 95.5966 28.6024 94.8856 29.1232 94.2536L23.5432 89.7506Z" fill="#7B70EE"/>
<path d="M33.2894 81.8506L31.1318 83.0356L34.2566 89.5926C34.9262 89.1976 35.6702 88.8026 36.4142 88.4076L33.2894 81.8506Z" fill="#7B70EE"/>
<path d="M70.9359 103.971L70.4895 101.443L63.5703 102.865C63.7935 103.734 63.8679 104.524 64.0167 105.393L70.9359 103.971Z" fill="#7B70EE"/>
<path d="M66.4718 91.8046L64.9838 89.7506L59.4038 94.1746C59.9246 94.8066 60.4454 95.5176 60.8918 96.2286L66.4718 91.8046Z" fill="#7B70EE"/>
<path d="M57.3949 83.0356L55.2373 81.8506L52.1125 88.4076C52.8565 88.7236 53.6005 89.1186 54.2701 89.5926L57.3949 83.0356Z" fill="#7B70EE"/>
<path d="M45.491 86.8276L45.4166 79.3226H42.9614L43.0358 86.8276C43.4078 86.8276 43.8542 86.7486 44.2262 86.7486C44.6726 86.7486 45.119 86.7486 45.491 86.8276Z" fill="#7B70EE"/>
<path d="M290.937 242.932H220.331V257.705H290.937V242.932Z" fill="#F0C64B"/>
<path d="M227.176 242.932H224.349V257.705H227.176V242.932Z" fill="#D8A32B"/>
<path d="M231.417 242.932H228.589V257.705H231.417V242.932Z" fill="#D8A32B"/>
<path d="M282.678 242.932H279.851V257.705H282.678V242.932Z" fill="#D8A32B"/>
<path d="M286.919 242.932H284.092V257.705H286.919V242.932Z" fill="#D8A32B"/>
<path d="M297.707 234.716V232.425C297.707 229.186 295.252 226.579 292.201 226.579H229.333V240.562H292.201C295.252 240.562 297.707 237.876 297.707 234.716Z" fill="white"/>
<path d="M292.201 224.051H228.887V225.315V226.579H292.201C295.252 226.579 297.707 229.186 297.707 232.425V234.716C297.707 237.955 295.252 240.562 292.201 240.562H228.887V241.826V243.09H292.201C296.517 243.09 300.013 239.377 300.013 234.795V232.504C300.013 227.843 296.517 224.051 292.201 224.051Z" fill="#2525AD"/>
<path d="M293.392 229.66H229.259V230.766H293.392V229.66Z" fill="#F5F5FF"/>
<path d="M293.392 233.057H229.259V234.163H293.392V233.057Z" fill="#F5F5FF"/>
<path d="M293.392 236.454H229.259V237.56H293.392V236.454Z" fill="#F5F5FF"/>
<path d="M223.902 216.704V214.65C223.902 211.727 226.134 209.357 228.887 209.357H285.506V221.918H228.887C226.134 221.997 223.902 219.627 223.902 216.704Z" fill="white"/>
<path d="M228.887 207.145H285.877V208.251V209.357H228.887C226.134 209.357 223.902 211.727 223.902 214.65V216.704C223.902 219.627 226.134 221.997 228.887 221.997H285.877V223.103V224.209H228.887C225.018 224.209 221.819 220.812 221.819 216.704V214.65C221.819 210.542 225.018 207.145 228.887 207.145Z" fill="#F0C64B"/>
<path d="M227.761 213.171H285.496V212.144H227.761V213.171Z" fill="#F5F5FF"/>
<path d="M227.761 216.242H285.496V215.215H227.761V216.242Z" fill="#F5F5FF"/>
<path d="M227.761 219.233H285.496V218.206H227.761V219.233Z" fill="#F5F5FF"/>
<path d="M110.144 50.0927C112.823 50.0927 114.98 52.3046 114.98 55.0696V55.8596C115.948 58.7826 116.543 62.4957 116.543 66.6827C116.543 70.8697 115.948 74.5826 114.98 77.5056V78.2957C114.98 81.0606 112.823 83.2727 110.144 83.2727C106.648 83.2727 103.746 75.8466 103.746 66.7616C103.746 57.4396 106.573 50.0927 110.144 50.0927Z" fill="#F0C64B"/>
<path d="M105.904 66.8406C105.904 72.4496 106.276 76.9526 106.797 76.9526C107.317 76.9526 107.689 72.4496 107.689 66.8406C107.689 61.2316 107.317 56.7286 106.797 56.7286C106.276 56.7286 105.904 61.2316 105.904 66.8406Z" fill="#D8A32B"/>
<path d="M121.677 59.0986V59.7306V73.7926V74.4246C121.379 78.2166 118.031 81.7716 113.641 83.0356V73.7136V59.6516V50.3296C118.031 51.7516 121.379 55.3066 121.677 59.0986Z" fill="#7B70EE"/>
<path d="M113.641 84.9316C114.385 84.9316 114.98 84.2996 114.98 83.5886V50.0926C114.98 49.3816 114.385 48.7496 113.641 48.7496C112.897 48.7496 112.302 49.3816 112.302 50.0926V83.5886C112.302 84.2996 112.897 84.9316 113.641 84.9316Z" fill="#2525AD"/>
<path d="M85.0717 50.0927C82.3933 50.0927 80.2357 52.3046 80.2357 55.0696V55.8596C79.2685 58.7826 78.6733 62.4957 78.6733 66.6827C78.6733 70.8697 79.2685 74.5826 80.2357 77.5056V78.2957C80.2357 81.0606 82.3933 83.2727 85.0717 83.2727C88.5685 83.2727 91.4701 75.8466 91.4701 66.7616C91.3957 57.4396 88.5685 50.0927 85.0717 50.0927Z" fill="#F0C64B"/>
<path d="M89.2382 66.8406C89.2382 72.4496 88.8662 76.9526 88.3454 76.9526C87.8246 76.9526 87.4526 72.4496 87.4526 66.8406C87.4526 61.2316 87.8246 56.7286 88.3454 56.7286C88.8662 56.7286 89.2382 61.2316 89.2382 66.8406Z" fill="#D8A32B"/>
<path d="M73.4653 59.0986V59.7306V73.7926V74.4246C73.7629 78.2166 77.1109 81.7716 81.5005 83.0356V73.7136V59.6516V50.3296C77.1109 51.7516 73.7629 55.3066 73.4653 59.0986Z" fill="#7B70EE"/>
<path d="M81.5006 84.9316C80.7566 84.9316 80.1614 84.2996 80.1614 83.5886V50.0926C80.1614 49.3816 80.7566 48.7496 81.5006 48.7496C82.2446 48.7496 82.8398 49.3816 82.8398 50.0926V83.5886C82.8398 84.2996 82.2446 84.9316 81.5006 84.9316Z" fill="#2525AD"/>
<path d="M113.79 29.7106C111.186 27.4196 107.764 25.9976 104.49 25.1286C101.142 24.2596 97.6454 24.0226 94.223 24.4176C93.1814 24.5756 92.1398 24.7336 91.1726 24.9706C90.503 25.1286 89.6846 25.2866 89.0894 25.6026C88.4198 25.9186 87.7502 26.3136 87.0806 26.7086C85.295 27.6566 83.435 28.6046 81.6494 29.6316C80.9054 30.0266 80.9798 31.1326 81.6494 31.5276C83.2862 32.6336 85.2206 32.7126 87.155 32.3966C88.4942 32.1596 89.6846 31.6856 90.9494 31.2116C93.1814 30.3426 95.6366 29.9476 98.0918 29.9476C100.249 29.9476 102.407 30.2636 104.341 31.1326C107.243 32.4756 110.74 33.3446 113.641 31.4486C114.088 31.0536 114.311 30.1846 113.79 29.7106Z" fill="#7B70EE"/>
<path d="M98.0174 23.1536C97.8686 23.1536 97.7198 23.1536 97.571 23.1536C97.4222 23.1536 97.2734 23.1536 97.1246 23.1536C82.0958 23.6276 70.043 36.7416 70.043 52.8576V70.8696C70.043 72.8446 71.6054 74.5036 73.4654 74.5036V56.7286L73.391 56.2546C72.275 49.0656 73.6886 41.5606 77.855 35.7146C79.7894 32.9496 82.3934 30.4216 85.9646 28.5256C86.039 28.5256 86.039 28.4466 86.1134 28.4466C93.3302 24.7336 101.886 24.7336 109.103 28.4466C109.177 28.4466 109.177 28.5256 109.252 28.5256C112.823 30.4216 115.427 32.9496 117.361 35.7146C121.453 41.5606 122.941 49.0656 121.825 56.2546L121.751 56.7286V74.5036C123.611 74.5036 125.173 72.8446 125.173 70.8696V52.8576C125.099 36.7416 113.046 23.7066 98.0174 23.1536Z" fill="#2525AD"/>
<path d="M304.477 87.7756H260.061V155.953H304.477V87.7756Z" fill="#D5CBFB"/>
<path d="M299.641 97.8086H264.822V99.3096H299.641V97.8086Z" fill="#7B70EE"/>
<path d="M299.641 104.682H264.822V106.183H299.641V104.682Z" fill="#7B70EE"/>
<path d="M299.641 111.634H264.822V113.135H299.641V111.634Z" fill="#7B70EE"/>
<path d="M299.641 118.586H264.822V120.087H299.641V118.586Z" fill="#7B70EE"/>
<path d="M299.641 125.459H264.822V126.96H299.641V125.459Z" fill="#7B70EE"/>
<path d="M299.641 132.411H264.822V133.912H299.641V132.411Z" fill="#7B70EE"/>
<path d="M299.641 149.238H264.822V149.633H299.641V149.238Z" fill="white"/>
<path d="M269.584 142.681C271.369 142.997 273.155 143.076 274.94 142.918C276.577 142.76 278.363 142.444 279.925 141.812C281.041 141.338 282.232 139.995 281.488 138.652C280.818 137.467 279.107 137.388 277.991 137.625C276.652 137.941 275.461 138.889 274.717 139.995C273.899 141.18 273.378 142.76 274.271 144.024C275.164 145.209 276.726 145.367 278.065 145.209C278.809 145.13 279.479 144.814 280.148 144.419C280.446 144.261 280.744 144.024 280.967 143.787C281.339 143.471 281.711 143.076 282.157 142.997C282.752 142.918 282.827 143.392 283.199 143.708C283.422 143.945 283.794 144.024 284.092 143.945C284.464 143.866 284.836 143.708 285.208 143.55C285.654 143.392 286.1 143.313 286.621 143.313C288.704 143.392 290.862 143.629 293.02 143.866C293.392 143.866 293.392 143.55 293.02 143.471C291.457 143.313 289.895 142.918 288.332 142.839C287.588 142.76 286.844 142.681 286.175 142.76C285.505 142.839 284.984 143.155 284.315 143.313C283.571 143.471 283.496 142.681 282.901 142.444C282.38 142.207 281.785 142.444 281.339 142.76C280.818 143.155 280.372 143.629 279.776 143.945C279.107 144.34 278.363 144.577 277.693 144.577C276.503 144.656 274.717 144.261 274.494 142.76C274.271 141.417 275.312 139.995 276.28 139.205C277.247 138.415 278.512 137.862 279.776 138.099C280.372 138.178 281.116 138.494 281.264 139.205C281.413 139.995 280.744 140.706 280.148 141.022C279.404 141.417 278.586 141.575 277.768 141.812C276.875 142.049 275.982 142.128 275.164 142.207C273.452 142.365 271.667 142.444 269.956 142.128C269.36 142.207 269.212 142.602 269.584 142.681Z" fill="#7B70EE"/>
<path d="M319.283 129.172L311.471 124.669L313.777 120.166C314.298 119.218 315.414 118.823 316.307 119.376L320.771 121.983C321.664 122.536 322.036 123.721 321.515 124.669L319.283 129.172Z" fill="#D5CBFB"/>
<path d="M318.72 130.167L310.938 125.684L288.408 169.774L296.189 174.257L318.72 130.167Z" fill="#2525AD"/>
<path d="M316.231 128.738L313.419 127.118L290.889 171.208L293.7 172.828L316.231 128.738Z" fill="#1C1C84"/>
<path d="M320.678 128.765L311.001 123.189L309.972 125.202L319.65 130.778L320.678 128.765Z" fill="#F0C64B"/>
<path d="M296.219 174.36L288.407 169.857L287.588 177.362L290.713 179.179L296.219 174.36Z" fill="#D5CBFB"/>
<path d="M290.713 179.179L287.588 177.362L287.068 182.26L290.713 179.179Z" fill="#2525AD"/>
<path d="M40.2087 52.5416L48.1695 61.0736" stroke="#7B70EE" stroke-width="2.1457" stroke-miterlimit="10"/>
<path d="M48.3182 52.5416L40.3574 61.0736" stroke="#7B70EE" stroke-width="2.1457" stroke-miterlimit="10"/>
<path d="M308.793 179.732L316.828 188.264" stroke="#7B70EE" stroke-width="2.1457" stroke-miterlimit="10"/>
<path d="M316.977 179.732L309.016 188.264" stroke="#7B70EE" stroke-width="2.1457" stroke-miterlimit="10"/>
<path d="M17.6655 150.028L24.7335 157.533" stroke="#2525AD" stroke-width="1.9001" stroke-miterlimit="10"/>
<path d="M24.8822 150.028L17.8142 157.533" stroke="#2525AD" stroke-width="1.9001" stroke-miterlimit="10"/>
<path d="M13.871 87.7756C13.871 91.1726 11.267 93.9376 8.06785 93.9376C4.86865 93.9376 2.26465 91.1726 2.26465 87.7756C2.26465 84.3786 4.86865 81.6136 8.06785 81.6136C11.3414 81.6926 13.871 84.3786 13.871 87.7756Z" stroke="#7B70EE" stroke-width="2.1457" stroke-miterlimit="10"/>
<path d="M240.047 83.1146C243.252 83.1146 245.85 80.3558 245.85 76.9526C245.85 73.5494 243.252 70.7906 240.047 70.7906C236.842 70.7906 234.244 73.5494 234.244 76.9526C234.244 80.3558 236.842 83.1146 240.047 83.1146Z" stroke="#7B70EE" stroke-width="2.1457" stroke-miterlimit="10"/>
<path d="M266.459 68.3416C266.459 69.2106 265.79 69.9216 264.971 69.9216C264.153 69.9216 263.483 69.2106 263.483 68.3416C263.483 67.4726 264.153 66.7616 264.971 66.7616C265.79 66.8406 266.459 67.4726 266.459 68.3416Z" stroke="#2525AD" stroke-width="1.9001" stroke-miterlimit="10"/>
<path d="M124.801 16.3596C124.801 17.2286 124.132 17.9396 123.313 17.9396C122.495 17.9396 121.825 17.2286 121.825 16.3596C121.825 15.4906 122.495 14.7796 123.313 14.7796C124.132 14.7796 124.801 15.4906 124.801 16.3596Z" stroke="#2525AD" stroke-width="1.9001" stroke-miterlimit="10"/>
<path d="M31.1318 214.255V217.968C26.4446 218.284 22.7246 222.392 22.7246 227.369V230.529C22.7246 235.664 26.5934 239.851 31.4294 239.93C33.215 250.042 41.5478 257.705 51.5174 257.705C62.8262 257.705 71.9774 247.988 71.9774 235.98V214.255H31.1318ZM25.6262 230.529V227.369C25.6262 224.051 28.0814 221.286 31.1318 220.97V235.901C31.1318 236.217 31.1318 236.533 31.1318 236.77C28.007 236.612 25.6262 233.847 25.6262 230.529Z" fill="#2525AD"/>
<path d="M61.7846 189.528C59.1806 188.106 55.7582 188.738 53.675 190.95C53.303 187.79 50.4758 185.42 47.4998 184.946C44.5238 184.472 41.4734 185.578 38.8694 187.158C36.3398 188.738 33.959 190.871 32.843 193.794C31.8014 196.717 32.3966 200.509 34.7774 202.247C35.7446 202.958 37.0094 203.195 38.1998 202.958C38.3486 203.985 38.7206 204.933 39.3158 205.644C41.3246 208.251 45.491 208.488 47.7974 206.197C49.5086 207.856 52.187 208.251 54.3446 207.224C54.791 206.987 55.2374 206.671 55.6094 206.355C55.4606 208.567 54.6422 210.621 53.3774 212.359C55.907 211.411 58.0646 209.436 59.3294 206.908C60.1478 205.249 60.5198 203.353 60.4454 201.457C62.4542 201.062 64.2398 199.482 64.9094 197.428C65.8766 194.505 64.3886 190.95 61.7846 189.528Z" fill="#D5CBFB"/>
<path d="M153.594 59.2566C153.52 59.2566 153.371 59.2566 153.297 59.2566C151.139 59.2566 149.354 61.1526 149.354 63.4436C149.354 65.7346 151.139 67.6306 153.297 67.6306C153.371 67.6306 153.52 67.6306 153.594 67.6306C155.603 67.4726 157.24 65.6556 157.24 63.4436C157.166 61.2316 155.603 59.4146 153.594 59.2566Z" fill="#2525AD"/>
<path d="M167.358 63.4436C167.358 62.7326 167.061 62.0216 166.614 61.5476C166.168 61.0736 165.498 60.7576 164.829 60.7576H163.341L163.192 60.2046C162.969 59.4936 162.745 58.8616 162.448 58.2296L162.225 57.7556L163.266 56.6496C164.233 55.6226 164.233 53.8846 163.266 52.7786C162.82 52.3046 162.15 51.9886 161.481 51.9886C160.811 51.9886 160.141 52.3046 159.695 52.7786L158.653 53.8846L158.207 53.6476C157.612 53.3316 157.017 53.0156 156.347 52.8576L155.826 52.6996V51.1196C155.826 49.8556 154.933 48.7496 153.817 48.4336C153.669 48.4336 153.445 48.3546 153.297 48.3546C152.627 48.3546 151.957 48.6706 151.511 49.1446C151.065 49.6186 150.767 50.3296 150.767 51.0406V52.6206L150.246 52.7786C149.577 53.0156 148.981 53.2526 148.386 53.5686L147.94 53.8056L146.898 52.6996C145.931 51.6726 144.294 51.6726 143.253 52.6996C142.806 53.1736 142.509 53.8846 142.509 54.5956C142.509 55.3066 142.806 56.0176 143.253 56.4916L144.294 57.5976L144.071 58.0716C143.773 58.7036 143.476 59.3356 143.327 60.0466L143.178 60.5996H141.69C140.277 60.5996 139.161 61.7846 139.161 63.2856C139.161 63.9966 139.458 64.7076 139.905 65.1816C140.351 65.6556 141.021 65.9716 141.69 65.9716H143.178L143.327 66.5246C143.55 67.2356 143.773 67.8676 144.071 68.4996L144.294 68.9736L143.253 70.0796C142.285 71.1066 142.285 72.8446 143.253 73.9506C143.699 74.4246 144.369 74.7406 145.038 74.7406C145.708 74.7406 146.377 74.4246 146.824 73.9506L147.865 72.8446L148.312 73.0816C148.907 73.3976 149.502 73.7136 150.172 73.8716L150.693 74.0296V75.6096C150.693 77.1106 151.809 78.2956 153.222 78.2956C153.371 78.2956 153.52 78.2956 153.743 78.2166H153.817C154.264 78.1376 154.71 77.8216 155.082 77.5056C155.529 77.0316 155.826 76.3206 155.826 75.6096V74.0296L156.347 73.8716C157.017 73.6346 157.612 73.3976 158.207 73.0816L158.653 72.8446L159.695 73.9506C160.141 74.4246 160.811 74.7406 161.481 74.7406C162.15 74.7406 162.82 74.4246 163.266 73.9506C163.713 73.4766 164.01 72.7656 164.01 72.0546C164.01 71.3436 163.713 70.6326 163.266 70.1586L162.225 69.0526L162.448 68.5786C162.745 67.9466 163.043 67.3146 163.192 66.6036L163.341 66.0506H164.829C166.242 66.1296 167.358 64.9446 167.358 63.4436ZM158.505 68.5786C157.314 70.0006 155.603 70.8696 153.817 71.0276C153.594 71.0276 153.445 71.0276 153.222 71.0276C149.279 71.0276 146.005 67.6306 146.005 63.3646C146.005 59.1776 149.205 55.7016 153.222 55.7016C153.445 55.7016 153.594 55.7016 153.817 55.7016C155.603 55.8596 157.24 56.7286 158.505 58.1506C159.769 59.5726 160.439 61.3896 160.439 63.3646C160.439 65.3396 159.769 67.2356 158.505 68.5786Z" fill="#2525AD"/>
<path d="M262.813 181.47C262.813 181.549 262.739 181.628 262.739 181.707C262.218 183.129 262.888 184.709 264.227 185.262C265.566 185.815 267.054 185.104 267.575 183.682C267.575 183.603 267.649 183.524 267.649 183.445C268.021 182.102 267.352 180.601 266.087 180.127C264.822 179.574 263.409 180.206 262.813 181.47Z" fill="#2525AD"/>
<path d="M268.468 173.491C268.021 173.333 267.575 173.333 267.203 173.491C266.831 173.649 266.459 174.044 266.31 174.439L265.938 175.387H265.566C265.12 175.387 264.673 175.387 264.227 175.387L263.929 175.466L263.557 174.518C263.185 173.649 262.218 173.254 261.325 173.649C260.953 173.807 260.581 174.202 260.433 174.597C260.284 175.071 260.284 175.545 260.433 175.94L260.805 176.888L260.581 177.125C260.284 177.441 259.912 177.757 259.689 178.152L259.465 178.468L258.573 178.073C257.829 177.757 257.01 178.073 256.564 178.784C256.489 178.863 256.489 179.021 256.415 179.1C256.266 179.574 256.266 180.048 256.415 180.443C256.564 180.838 256.936 181.233 257.308 181.391L258.201 181.786V182.181C258.201 182.655 258.201 183.129 258.201 183.603L258.275 183.919L257.382 184.314C256.564 184.709 256.192 185.736 256.564 186.684C256.713 187.079 257.085 187.474 257.457 187.632C257.903 187.79 258.349 187.79 258.721 187.632L259.614 187.237L259.837 187.474C260.135 187.79 260.433 188.185 260.805 188.422L261.102 188.659L260.73 189.607C260.433 190.555 260.805 191.582 261.697 191.898C262.144 192.056 262.59 192.056 262.962 191.898C263.334 191.74 263.706 191.345 263.855 190.95L264.227 190.002H264.599C265.045 190.002 265.492 190.002 265.938 190.002L266.236 189.923L266.608 190.871C266.98 191.74 267.947 192.135 268.84 191.74C269.212 191.582 269.584 191.187 269.733 190.792C269.881 190.318 269.881 189.844 269.733 189.449L269.361 188.501L269.584 188.264C269.881 187.948 270.253 187.632 270.477 187.237L270.7 186.921L271.593 187.316C272.485 187.632 273.453 187.237 273.75 186.289C273.825 186.21 273.825 186.052 273.825 185.973V185.894C273.899 185.578 273.825 185.262 273.676 184.946C273.527 184.551 273.155 184.156 272.783 183.998L271.89 183.603V183.208C271.89 182.734 271.89 182.26 271.89 181.786L271.816 181.47L272.709 181.075C273.081 180.917 273.453 180.522 273.601 180.127C273.75 179.653 273.75 179.179 273.601 178.784C273.453 178.389 273.081 177.994 272.709 177.836C272.262 177.678 271.816 177.678 271.444 177.836L270.551 178.231L270.328 177.994C270.03 177.678 269.733 177.283 269.361 177.046L269.063 176.809L269.435 175.861C269.733 174.834 269.286 173.807 268.468 173.491ZM269.361 180.443C269.881 181.549 269.956 182.813 269.658 184.077C269.658 184.235 269.584 184.314 269.509 184.472C268.542 187 265.864 188.343 263.409 187.316C261.028 186.289 259.763 183.445 260.73 180.838C260.805 180.68 260.805 180.601 260.879 180.443C261.4 179.337 262.293 178.468 263.334 177.994C264.45 177.52 265.641 177.52 266.757 177.994C267.947 178.468 268.84 179.337 269.361 180.443Z" fill="#2525AD"/>
</svg>
