<?xml version="1.0" encoding="utf-8"?>
<!-- Generator: Adobe Illustrator 26.0.1, SVG Export Plug-In . SVG Version: 6.00 Build 0)  -->
<svg version="1.1" id="Layer_1" xmlns="http://www.w3.org/2000/svg" xmlns:xlink="http://www.w3.org/1999/xlink" x="0px" y="0px"
	 viewBox="0 0 613 82" style="enable-background:new 0 0 613 82;" xml:space="preserve">
<style type="text/css">
	.st0{fill:#050101;}
	.st1{fill:#404041;}
	.st2{fill:url(#SVGID_1_);}
	.st3{fill:url(#SVGID_00000145056510973335434960000003744994511859786909_);}
	.st4{fill:url(#SVGID_00000035499071919811695320000017989896398722454664_);}
	.st5{fill:url(#SVGID_00000020373728842655530100000011968508146513743262_);}
	.st6{fill:url(#SVGID_00000013898428342148148790000012148386746520130962_);}
	.st7{fill:url(#SVGID_00000127032695196292506740000001773589209781417600_);}
</style>
<g>
	<g>
		<path class="st0" d="M166.2,20.7c-0.5,0-1-0.1-1.5-0.2c-4-1.1-7.8-1.6-11.5-1.6c-1.8,0-3.8,0.1-5.9,0.4s-4.3,0.7-6.7,1.3
			c0,3.2-0.1,8.1-0.3,14.5c1.4-0.1,6.1-0.5,14.3-1.4c4.7-0.5,7.6-0.7,8.9-0.7c1.4,0,2.7,0.5,3.7,1.4s1.5,2.1,1.5,3.6
			c0,2.9-1.5,4.5-4.6,4.9c-2,0.1-4.9,0.4-8.8,0.7c-3.5,0.4-8.7,0.9-15.7,1.4c-0.2,3.1-0.3,5.6-0.3,7.5c0,4.8,0.3,7.5,0.8,8.2
			c0.3,0.3,1.8,0.5,4.6,0.5c1.5,0,3.8,0,6.9-0.1c3-0.1,5.3-0.1,6.9-0.1c0.5,0,1.2-0.1,2.2-0.2s1.7-0.2,2.1-0.2
			c1.4,0,2.6,0.4,3.6,1.2c1.1,0.9,1.7,2.2,1.7,3.8c0,2.7-1.4,4.4-4.3,4.9c-2.4,0.5-7.5,0.7-15.2,0.7c-8,0-13.1-1.1-15.6-3.2
			c-2.7-2.4-4-7.5-4-15.4c0-3.3,0.2-8.2,0.7-14.7c0.5-6.6,0.7-11.5,0.7-14.7c0-0.9-0.1-2.1-0.4-3.8c-0.2-1.7-0.4-2.9-0.4-3.8
			c0-3.7,1.7-5.6,5.1-5.6c1.1,0,2.1,0.3,3,0.9c2.8-0.7,5.5-1.2,8.1-1.6c2.5-0.4,5-0.5,7.2-0.5c6.1,0,11.1,0.7,14.8,2.1
			c2.2,0.9,3.4,2.4,3.4,4.6c0,1.3-0.4,2.4-1.3,3.4C169,20.2,167.8,20.7,166.2,20.7z"/>
		<path class="st0" d="M218.4,68.8c-1.9-0.1-3.9-2.3-5.8-6.8c-1.3-2.9-2.4-6.2-3.3-10c-1.8,0.3-4.8,0.5-8.9,0.8
			c-3.9,0.3-6.8,0.6-8.9,1c-1.1,2.7-3.1,6.7-5.9,12.1c-1.1,1.8-2.6,2.6-4.5,2.6c-1.3,0-2.5-0.5-3.6-1.4s-1.6-2.1-1.6-3.5
			c0-1.2,1.8-5.5,5.4-12.7c-0.3-0.8-0.5-1.5-0.4-2.1c0.1-1.2,1.3-2.1,3.5-2.8c3.5-6,7.3-12.2,11.6-18.7c6.1-9.2,9.9-13.9,11.3-13.9
			c2.7,0,4.5,1.6,5.4,4.9c0.5,2.6,1.3,6.5,2.3,11.8c1.5,7,3.3,15.1,5.5,24.1c0.2,0.7,0.8,2.3,1.9,4.8c0.9,2.1,1.3,3.7,1.3,4.7
			c0,1.4-0.5,2.6-1.6,3.5C221,68.4,219.7,68.8,218.4,68.8z M204.7,31.2c-1.9,3.3-4.5,7.7-7.9,13.4c1.1-0.2,2.8-0.4,5.1-0.6
			c2.7-0.2,4.5-0.3,5.2-0.4C206.6,40.4,205.8,36.3,204.7,31.2z"/>
		<path class="st0" d="M248.5,69.9c-6.2,0-11.1-1.4-14.6-4.1c-3-2.3-4.5-4.9-4.5-8c0-1.5,0.5-2.8,1.4-3.8s2.2-1.5,3.9-1.5
			c2.2,0,3.8,1.1,4.8,3.4c1.4,3,4.5,4.5,9.5,4.5c4.2,0,8.3-0.9,12.2-2.8c4.1-1.9,6.1-3.9,6.1-6.2c0-3.1-1.3-5.1-3.8-6.1
			c-1.8-0.7-5.4-1.1-10.9-1.2c-4.2-0.1-8-0.9-11.4-2.4c-4.5-2-6.7-4.9-6.7-8.7c0.1-4.8,2.6-9.1,7.6-13.1s10.5-6,16.5-6
			c2.4,0,5.4,0.5,8.9,1.6c4.4,1.4,6.6,2.9,6.6,4.7c0,1.3-0.4,2.4-1.3,3.4c-1,1.1-2.2,1.6-3.8,1.6c-1.1,0-2.9-0.2-5.1-0.7
			c-2.3-0.5-4-0.7-5.2-0.7c-3.1,0-6.1,0.8-9,2.3s-4.4,3.2-4.4,4.9c0,0.9,0.5,1.7,1.3,2.3c0.9,0.6,2.2,1,4,1.3
			c3.1,0.2,6.2,0.3,9.3,0.5c5.4,0.4,9.7,1.9,12.9,4.6c3.5,2.9,5.2,7,5.2,12.2c0,6.3-3.6,11.1-10.8,14.3
			C261.8,68.7,255.6,69.9,248.5,69.9z"/>
		<path class="st0" d="M324,22.5c-1.2,2.6-3.8,8.1-7.5,16.6c-3.1,7.1-5.8,12.7-8,16.8c-3.8,7-5.9,10.8-6.1,11.2
			c-1.4,2.1-3.1,3.2-5,3.2c-1.3,0-2.5-0.4-3.5-1.3c-1.1-1-1.7-2.2-1.7-3.6c0-1.2,2.5-6.2,7.6-15.1c-1.9-2.7-4.6-6.8-8.1-12.3
			c-2.6-4-6.5-10.2-11.6-18.4c-0.5-0.8-0.7-1.7-0.7-2.6c0-1.4,0.5-2.6,1.6-3.6c1-0.9,2.2-1.4,3.6-1.4c1.6,0,3.1,0.8,4.4,2.5l2.8,4.4
			c0.2,0.3,2.3,3.9,6.3,10.7c2.5,4.4,4.8,7.8,6.7,10.4c1.9-3.7,4.5-9.4,8-17c0.7-1.7,1.8-4.2,3.3-7.6c0.9-2.2,2.5-3.3,4.8-3.3
			c1.3,0,2.5,0.4,3.5,1.3c1.1,1,1.7,2.1,1.7,3.6C326.1,17.7,325.4,19.6,324,22.5z"/>
		<path class="st0" d="M348.5,69.9c-6.2,0-11.1-1.4-14.6-4.1c-3-2.3-4.5-4.9-4.5-8c0-1.5,0.5-2.8,1.4-3.8s2.2-1.5,3.9-1.5
			c2.2,0,3.8,1.1,4.8,3.4c1.4,3,4.5,4.5,9.5,4.5c4.2,0,8.3-0.9,12.2-2.8c4.1-1.9,6.1-3.9,6.1-6.2c0-3.1-1.3-5.1-3.8-6.1
			c-1.8-0.7-5.4-1.1-10.9-1.2c-4.2-0.1-8-0.9-11.4-2.4c-4.5-2-6.7-4.9-6.7-8.7c0.1-4.8,2.6-9.1,7.6-13.1s10.5-6,16.5-6
			c2.4,0,5.4,0.5,8.9,1.6c4.4,1.4,6.6,2.9,6.6,4.7c0,1.3-0.4,2.4-1.3,3.4c-1,1.1-2.2,1.6-3.8,1.6c-1.2,0-2.9-0.2-5.1-0.7
			c-2.3-0.5-4-0.7-5.2-0.7c-3.1,0-6.1,0.8-9,2.3s-4.4,3.2-4.4,4.9c0,0.9,0.5,1.7,1.3,2.3c0.9,0.6,2.2,1,4,1.3
			c3.1,0.2,6.2,0.3,9.3,0.5c5.4,0.4,9.7,1.9,12.9,4.6c3.5,2.9,5.2,7,5.2,12.2c0,6.3-3.6,11.1-10.8,14.3
			C361.8,68.7,355.5,69.9,348.5,69.9z"/>
		<path class="st0" d="M420.2,28.7c-2.2,0-3.8-1.2-4.9-3.5c-0.5-1.1-1-1.8-1.5-2c-0.4-0.2-1.3-0.3-2.9-0.3c-3.1,0-6.6,2.4-10.7,7.2
			c-5.6,6.7-8.5,13-8.5,18.8c0,2.7,0.9,4.9,2.7,6.9s3.9,2.9,6.4,2.9c2.4,0,4.9-0.6,7.4-1.9c0.9-0.5,2.7-1.7,5.6-3.6
			c1.9-1.3,3.3-1.9,4.3-1.9c1.5,0,2.7,0.5,3.7,1.6c1,1,1.4,2.1,1.4,3.4c0,1.4-0.6,2.7-1.9,3.8c-6.7,5.7-13.5,8.5-20.5,8.5
			c-5.5,0-10.1-2-13.9-6c-3.6-3.9-5.4-8.4-5.4-13.6c0-8.2,3.6-16.5,10.7-25c6.1-7.2,12.3-10.8,18.6-10.8c1.1,0,2,0,2.9,0.1
			s1.6,0.2,2.3,0.3c1.1-1,2.4-1.6,3.9-1.6c2.5,0,4,1.4,4.6,4.3c0.4,2,0.6,4.4,0.6,7.2c0,1.2-0.3,2.3-1.1,3.3
			C423.3,28,421.9,28.7,420.2,28.7z"/>
		<path class="st0" d="M455.1,69.9c-7.2,0-13.4-2.1-18.5-6.2c-5.4-4.4-8.1-10.2-8.1-17.2c0-8.3,2.6-15.9,7.8-22.7
			c5.8-7.7,13.2-11.5,22-11.5c8.5,0,14.9,2,19.2,5.9c4.2,3.9,6.4,9.8,6.4,17.6c0,8.3-2.4,15.8-7.2,22.6
			C471.2,66,464,69.9,455.1,69.9z M458.3,22.1c-5.4,0-10.1,2.6-14,7.9c-3.6,4.9-5.5,10.4-5.5,16.4c0,4,1.6,7.4,4.7,9.9
			c3,2.4,6.8,3.7,11.5,3.7c5.4,0,9.8-2.6,13.4-7.9c3.3-4.8,4.9-10.3,4.9-16.4c0-5.1-1.2-8.7-3.4-10.7
			C467.8,23.1,463.9,22.1,458.3,22.1z"/>
		<path class="st0" d="M527.5,68.1c-1.3,0-2.5-0.5-3.6-1.5c-7.4-6.9-15.5-11.7-24.4-14.4c0.3,7.1,0.4,11,0.4,11.8
			c0,1.4-0.5,2.6-1.5,3.5c-1,1-2.2,1.5-3.7,1.5s-2.7-0.5-3.7-1.5s-1.5-2.1-1.5-3.5c0-1.8,0-4.6,0.1-8.2s0.1-6.4,0.1-8.2l0.1-29.5
			c0-1.6,0.5-3,1.4-4.3c1.2-1.7,3-2.4,5.2-2.2c5.9,0.4,9,0.7,9.1,0.7c3.4,0.4,6.3,1.2,8.7,2.5c10.4,5.2,15.6,11.8,15.6,19.5
			c0,3.2-1.1,6-3.3,8.5s-5.5,4.5-9.8,6.2c6.5,3.6,11.3,7.3,14.6,11.1c0.8,1,1.3,2.1,1.3,3.3c0,1.4-0.5,2.5-1.5,3.5
			C530.2,67.6,529,68.1,527.5,68.1z M504.1,22.1c-0.2,0-1.6-0.1-4.3-0.3v19.5c0.6,0,1.2,0,1.6,0c6,0,10.4-0.7,13.3-2.2
			c1.2-0.6,2.4-1.5,3.4-2.5s1.6-1.8,1.6-2.4c0-2.7-1.7-5.4-5.2-7.9C511.2,23.8,507.7,22.4,504.1,22.1z"/>
		<path class="st0" d="M553.8,38.8c-1.1,4-2.6,9.9-4.6,17.9c-0.5,2.8-0.9,5.5-1.3,8.2c-1,3.5-2.8,5.2-5.5,5.2c-1.7,0-3-0.6-4-1.7
			c-0.8-1-1.2-2.1-1.2-3.5c0-4,0.8-8.8,2.5-14.5c2.5-8.5,3.9-13.2,4.1-14.2c0.7-3.8,1.4-7.5,2.2-11.3c1.1-5.2,2.3-8.6,3.6-10.4
			c1.3-1.7,2.9-2.6,4.8-2.6c2.2,0,3.9,1.1,4.9,3.4c1,2.1,2,6.5,3.2,13c1.1,6.4,2.7,13.2,4.8,20.6c2.8-7.2,5.4-15.2,7.8-23.9l2-8.4
			c1.3-3.5,3.4-5.2,6.1-5.2c2.7,0,4.6,2,5.9,6.1c0.5,1.6,1.1,4.7,1.7,9.2c1.4,10.4,3.2,19.3,5.3,26.7c2.2,7.5,3.3,11.6,3.3,12.3
			c0,1.4-0.6,2.6-1.7,3.6c-1.1,0.9-2.3,1.3-3.6,1.3c-2.7,0-4.6-1.9-5.9-5.7l-2-8.9c-1.2-4.4-2.4-10.7-3.8-18.9
			c-1.1,3.3-2.9,8.4-5.5,15.4l-2.2,6.7c-0.9,2.7-1.8,4.9-2.8,6.6c-1.3,2.3-3.1,3.4-5.4,3.4c-2.3,0-4-1.4-5.3-4.1l-2-6.8
			C557.1,52.2,555.4,45.6,553.8,38.8z"/>
	</g>
	<g>
		<path d="M112.1,25.7c-4,0-6.8,4-5.4,7.7l-13,10.2c-1.4-0.9-3.1-1.2-4.7-0.8l-8.3-12.4c0.8-1,1.2-2.2,1.2-3.5
			c0-3.2-2.6-5.7-5.7-5.7s-5.7,2.6-5.7,5.7c0,1.8,0.8,3.4,2.1,4.4l-7.2,18.6c-1,0-1.9,0.2-2.8,0.6l-2.5-2.6c2-3.8-0.8-8.4-5.1-8.4
			c-4,0-6.7,3.9-5.4,7.7L42,53c-0.9-0.6-2-1-3.2-1c-3.2,0-5.7,2.6-5.7,5.7s2.6,5.7,5.7,5.7c4,0,6.7-3.9,5.4-7.7l7.6-5.9
			c1.7,1.2,3.9,1.3,5.7,0.4l2.5,2.6c-2,3.8,0.8,8.4,5.1,8.4c3.2,0,5.7-2.6,5.7-5.7c0-1.8-0.8-3.4-2.1-4.4L76,32.6
			c0.6,0,1.2,0,1.8-0.2l8.3,12.4c-0.8,1-1.2,2.2-1.2,3.5c0,3.2,2.6,5.7,5.7,5.7c4,0,6.8-4,5.4-7.7l13-10.2c0.9,0.6,2,1,3.2,1
			c3.2,0,5.7-2.6,5.7-5.7C117.9,28.3,115.3,25.7,112.1,25.7z M38.8,59.9c-1.2,0-2.1-1-2.1-2.1c0-1.2,1-2.1,2.1-2.1
			c1.5,0,2.5,1.5,2,2.9C40.5,59.3,39.8,59.9,38.8,59.9z M55,43.1c1,0,1.9,0.7,2.1,1.7c0.3,1.3-0.7,2.6-2.1,2.6c-1.5,0-2.5-1.5-2-2.9
			C53.3,43.7,54.1,43.1,55,43.1z M65.1,57.7c-1.2,0-2.1-1-2.1-2.1c0-1.4,1.3-2.4,2.6-2.1c0.8,0.2,1.4,0.8,1.6,1.7
			C67.5,56.5,66.5,57.7,65.1,57.7z M75.4,28.8c-0.8-0.3-1.3-1.1-1.3-1.9c0-1.2,1-2.1,2.1-2.1c1.2,0,2.1,1,2.1,2.1
			C78.4,28.4,76.8,29.4,75.4,28.8z M90.6,50.5c-1.2,0-2.1-1-2.1-2.1c0-1.6,1.6-2.6,3-1.9c1,0.5,1.5,1.6,1.1,2.7
			C92.3,49.9,91.5,50.5,90.6,50.5z M112.1,33.6c-1.2,0-2.1-1-2.1-2.1c0-1.1,0.9-2.1,2.1-2.1c1.2,0,2.1,1,2.1,2.1
			C114.3,32.6,113.3,33.6,112.1,33.6z"/>
		<path class="st1" d="M38.8,63.1c-2.9,0-5.3-2.4-5.3-5.3c0-4.3,4.8-6.8,8.3-4.4l0.3,0.2l8-6.2L50,47c-1.2-3.5,1.3-7.1,5-7.1
			c4,0,6.6,4.2,4.7,7.8l-0.1,0.3l2.9,3c1.3-0.6,2-0.7,3.2-0.6l7.4-19.2l-0.2-0.2c-1.2-1-1.9-2.5-1.9-4.1c0-2.9,2.4-5.3,5.3-5.3
			c4.4,0,6.9,5.1,4.2,8.6l-0.2,0.2l8.6,13c0.4-0.1,0.9-0.3,1.7-0.3c1,0,2.1,0.3,2.9,0.9l0.3,0.2l13.4-10.6l-0.1-0.3
			c-1.3-3.5,1.3-7.1,5-7.1c2.9,0,5.3,2.4,5.3,5.3c0,4.2-4.7,6.8-8.3,4.4l-0.3-0.2L95.5,46.3l0.1,0.3c1.3,3.5-1.3,7.1-5,7.1
			c-4.4,0-6.9-5.1-4.2-8.6l0.2-0.2l-8.6-13c-1.1,0.3-1.5,0.3-2.3,0.3l-7.4,19.2l0.2,0.2c1.2,1,1.9,2.5,1.9,4.1
			c0,2.9-2.4,5.3-5.3,5.3c-4,0-6.6-4.2-4.7-7.8l0.1-0.3l-2.9-3c-0.4,0.2-1.3,0.7-2.6,0.7c-1.1,0-2.1-0.3-3-0.9l-0.3-0.2l-8,6.2
			l0.1,0.3c0.6,1.6,0.3,3.4-0.7,4.8C42.2,62.3,40.6,63.1,38.8,63.1z M38.8,55.2c-1.4,0-2.6,1.1-2.6,2.6c0,1.4,1.1,2.6,2.6,2.6
			c2,0,3.3-2.3,2.1-4C40.5,55.6,39.7,55.2,38.8,55.2z M62.6,55.6c0,2.4,3,3.5,4.5,1.6c1.2-1.5,0.5-3.7-1.4-4.1
			C64.1,52.7,62.6,53.9,62.6,55.6z M88,48.4c0,1.4,1.1,2.6,2.6,2.6c1.1,0,2-0.7,2.4-1.7c0.5-1.3-0.1-2.6-1.4-3.2
			C89.9,45.3,88,46.5,88,48.4z M55,42.6c-2.1,0-3.3,2.3-2.1,4c1,1.4,3,1.5,4.1,0.1C58.4,45.1,57.2,42.6,55,42.6z M112.1,28.9
			c-1.4,0-2.6,1.1-2.6,2.6c0,1.4,1.1,2.6,2.6,2.6s2.6-1.1,2.6-2.6C114.7,30,113.5,28.9,112.1,28.9z M76.3,24.3
			c-1.4,0-2.6,1.1-2.6,2.6c0,1.4,1.2,2.6,2.6,2.6c1.4,0,2.6-1.1,2.6-2.6C78.8,25.4,77.7,24.3,76.3,24.3z"/>
		<g>
			
				<linearGradient id="SVGID_1_" gradientUnits="userSpaceOnUse" x1="2665.1223" y1="97.5826" x2="2528.5166" y2="14.5479" gradientTransform="matrix(1 0 0 -1 -2518 82)">
				<stop  offset="0" style="stop-color:#FFFFFF"/>
				<stop  offset="8.590000e-02" style="stop-color:#C5CCE4"/>
				<stop  offset="0.1704" style="stop-color:#94A1CD"/>
				<stop  offset="0.2498" style="stop-color:#6E7FBB"/>
				<stop  offset="0.3227" style="stop-color:#5367AE"/>
				<stop  offset="0.3869" style="stop-color:#4258A6"/>
				<stop  offset="0.4355" style="stop-color:#3C53A3"/>
				<stop  offset="1" style="stop-color:#252064"/>
			</linearGradient>
			<path class="st2" d="M72.3,14.2c9.3,0,15.9,9.1,13,18c1.6-1.5,3.8-2.2,5.9-1.8c4.2,0.7,6.9,4.9,5.6,9.1l5.5-4.3
				c-1-5.5-5.5-9.7-11.2-10.1c-1.4-9.1-9.3-16.1-18.8-16.1c-7,0-13.1,3.8-16.4,9.4c1.8,0.4,3.6,0.9,5.2,1.8
				C63.6,16.5,67.7,14.2,72.3,14.2z"/>
			
				<linearGradient id="SVGID_00000159437746694057503680000002847212996797055162_" gradientUnits="userSpaceOnUse" x1="2680.4729" y1="72.3319" x2="2543.8638" y2="-10.7049" gradientTransform="matrix(1 0 0 -1 -2518 82)">
				<stop  offset="0" style="stop-color:#FFFFFF"/>
				<stop  offset="8.590000e-02" style="stop-color:#C5CCE4"/>
				<stop  offset="0.1704" style="stop-color:#94A1CD"/>
				<stop  offset="0.2498" style="stop-color:#6E7FBB"/>
				<stop  offset="0.3227" style="stop-color:#5367AE"/>
				<stop  offset="0.3869" style="stop-color:#4258A6"/>
				<stop  offset="0.4355" style="stop-color:#3C53A3"/>
				<stop  offset="1" style="stop-color:#252064"/>
			</linearGradient>
			<path style="fill:url(#SVGID_00000159437746694057503680000002847212996797055162_);" d="M106.3,40.1l-4.4,3.4
				c4.9,3.1,6.1,9.6,2.9,14.3c-1.7,0-22.6,0-23.6,0c-1.3-2.1-4.8-8.1-8.2-13.8l-2.5,6.4c3.7,6.3,7.2,12.2,7.6,12.8
				c1.3,0,27.7,0,29.1,0C113.9,56.8,113.5,46,106.3,40.1z"/>
			
				<linearGradient id="SVGID_00000174573484972277383360000017678699627833289633_" gradientUnits="userSpaceOnUse" x1="2673.2585" y1="84.1987" x2="2536.6509" y2="1.1628" gradientTransform="matrix(1 0 0 -1 -2518 82)">
				<stop  offset="0" style="stop-color:#FFFFFF"/>
				<stop  offset="8.590000e-02" style="stop-color:#C5CCE4"/>
				<stop  offset="0.1704" style="stop-color:#94A1CD"/>
				<stop  offset="0.2498" style="stop-color:#6E7FBB"/>
				<stop  offset="0.3227" style="stop-color:#5367AE"/>
				<stop  offset="0.3869" style="stop-color:#4258A6"/>
				<stop  offset="0.4355" style="stop-color:#3C53A3"/>
				<stop  offset="1" style="stop-color:#252064"/>
			</linearGradient>
			<path style="fill:url(#SVGID_00000174573484972277383360000017678699627833289633_);" d="M31,55.4c-3.1-5.5,0.9-12.3,7.2-12.3
				c2,0,3.9,0.7,5.3,2c-1.4-1.9-2.2-4.3-2-6.9c0.4-5.4,4.9-9.6,10.3-9.6c3.8,0,7.3,2.1,9.1,5.4l0,0c0.3,0.5,2.6,4.5,5.5,9.3l2.5-6.4
				c-1.3-2.2-2.4-4.1-3-5.1c-2.3-4.6-6.9-7.9-12.1-8.5c-9-1.1-17.1,5.6-17.6,14.6c-6.3,1-11.2,6.3-11.5,12.7
				c-8.7,2.7-13.2,12.2-10,20.6c4.7,0,81.7,0,85.9,0l5-5.4c-1.5,0-84.1,0-86.5,0C18.9,59.4,24.7,54.4,31,55.4z"/>
		</g>
		<g>
			<g>
				
					<linearGradient id="SVGID_00000171704914134154268120000011177240598811742123_" gradientUnits="userSpaceOnUse" x1="2496.3425" y1="-1.4739" x2="2630.3943" y2="75.4551" gradientTransform="matrix(1 0 0 -1 -2518 82)">
					<stop  offset="0" style="stop-color:#FFFFFF"/>
					<stop  offset="8.590000e-02" style="stop-color:#C5CCE4"/>
					<stop  offset="0.1704" style="stop-color:#94A1CD"/>
					<stop  offset="0.2498" style="stop-color:#6E7FBB"/>
					<stop  offset="0.3227" style="stop-color:#5367AE"/>
					<stop  offset="0.3869" style="stop-color:#4258A6"/>
					<stop  offset="0.4355" style="stop-color:#3C53A3"/>
					<stop  offset="1" style="stop-color:#252064"/>
				</linearGradient>
				<path style="fill:url(#SVGID_00000171704914134154268120000011177240598811742123_);" d="M97.5,38.3c0.6-4.4-2.8-8.5-7.4-8.5
					c-1.4,0-2.8,0.4-4,1.2c2-8.6-4.5-17.3-13.8-17.3c-4.4,0-8.6,2.1-11.3,5.7c-1.4-0.7-2.9-1.2-4.4-1.5c3.4-5.4,9.4-8.7,15.7-8.7
					c8.7,0,16.9,6.2,18.5,16.1l0.3,0c5.3,0.4,9.7,4.3,10.7,9.5L97.5,38.3z"/>
			</g>
			<g>
				
					<linearGradient id="SVGID_00000086650360068395250540000009123568034712527768_" gradientUnits="userSpaceOnUse" x1="2509.8127" y1="-28.3131" x2="2645.5911" y2="49.6069" gradientTransform="matrix(1 0 0 -1 -2518 82)">
					<stop  offset="0" style="stop-color:#FFFFFF"/>
					<stop  offset="8.590000e-02" style="stop-color:#C5CCE4"/>
					<stop  offset="0.1704" style="stop-color:#94A1CD"/>
					<stop  offset="0.2498" style="stop-color:#6E7FBB"/>
					<stop  offset="0.3227" style="stop-color:#5367AE"/>
					<stop  offset="0.3869" style="stop-color:#4258A6"/>
					<stop  offset="0.4355" style="stop-color:#3C53A3"/>
					<stop  offset="1" style="stop-color:#252064"/>
				</linearGradient>
				<path style="fill:url(#SVGID_00000086650360068395250540000009123568034712527768_);" d="M78.5,62.8C78,62,71.1,50.3,71.1,50.3
					l2.1-5.4L81,58.3h24c3.7-5.3,2-11.6-2.4-14.7l3.6-2.9c6.7,5.7,7,15.9,0.8,22.1L78.5,62.8L78.5,62.8z"/>
			</g>
			<g>
				
					<linearGradient id="SVGID_00000183948925171967568990000015836983568548628639_" gradientUnits="userSpaceOnUse" x1="2501.6433" y1="-17.0994" x2="2638.0298" y2="61.1696" gradientTransform="matrix(1 0 0 -1 -2518 82)">
					<stop  offset="0" style="stop-color:#FFFFFF"/>
					<stop  offset="8.590000e-02" style="stop-color:#C5CCE4"/>
					<stop  offset="0.1704" style="stop-color:#94A1CD"/>
					<stop  offset="0.2498" style="stop-color:#6E7FBB"/>
					<stop  offset="0.3227" style="stop-color:#5367AE"/>
					<stop  offset="0.3869" style="stop-color:#4258A6"/>
					<stop  offset="0.4355" style="stop-color:#3C53A3"/>
					<stop  offset="1" style="stop-color:#252064"/>
				</linearGradient>
				<path style="fill:url(#SVGID_00000183948925171967568990000015836983568548628639_);" d="M15,70.8c-2.8-7.7,0.9-16.9,10.1-19.8
					c0.3-6.3,4.6-11.6,11.5-12.7c0.6-9.5,8.7-15.6,17.2-14.6c5.1,0.6,9.5,3.7,11.8,8.3l2.9,4.9l-2.1,5.4L61.4,34
					c-1.3-2.9-4.9-5.9-9.6-5.9c-7.9,0-13.2,8.3-9.7,15.5c-1.2-0.6-2.6-1-4-1c-6.3,0-10.5,6.6-7.9,12.2c-6.3-0.5-11.9,4.5-11.7,11
					l0,0.4h86l-4.2,4.5L15,70.8L15,70.8z"/>
			</g>
		</g>
	</g>
</g>
</svg>
